<svg width="140" height="399" viewBox="0 0 140 399" fill="none" xmlns="http://www.w3.org/2000/svg">
<g clip-path="url(#clip0_1661_7086)">
<path d="M64.5932 66.5854C61.4817 65.608 58.3732 64.6418 54.946 63.5678C56.2387 61.7906 57.9621 61.3952 59.5278 61.7183C64.1625 62.68 68.8082 63.7052 73.2944 65.1716C75.8674 66.0096 76.1508 68.3063 74.1714 70.1347C70.8702 73.1806 67.4203 76.055 64.0254 78.9992C63.8303 79.1723 63.5969 79.428 63.3821 79.4373C62.671 79.4648 61.9625 79.389 61.2547 79.3613C61.2983 78.758 61.1126 77.9746 61.4212 77.5719C62.4594 76.2191 63.675 74.9878 64.8192 73.7152C65.4247 73.0459 66.026 72.3836 66.3806 71.0933C65.0444 71.3788 63.689 71.6152 62.3781 71.9725C35.5932 79.1918 17.2338 102.579 16.5861 130.422C16.5017 133.982 16.8602 137.551 16.9937 141.113C17.0372 142.357 17.0143 143.601 17.0282 144.847C16.7454 144.941 16.4698 145.039 16.1871 145.133C15.6773 144.515 14.8747 143.975 14.7059 143.278C14.0979 140.851 13.5217 138.385 13.2607 135.901C10.6476 110.737 24.3697 85.8154 47.6314 73.829C52.0657 71.542 56.9241 70.0712 61.5998 68.2569C62.561 67.8786 63.5798 67.6478 64.5693 67.3525C64.5806 67.1019 64.5991 66.8555 64.6105 66.6049L64.5932 66.5854Z" fill="white"/>
</g>
<g clip-path="url(#clip1_1661_7086)">
<path d="M116.714 302.948C114.936 303.624 113.402 304.214 111.864 304.783C106.582 306.739 101.312 306.901 95.954 304.991C92.0384 303.598 89.2863 301.055 88.0331 297.158C86.7757 293.267 85.8452 289.274 84.8015 285.312C84.2828 283.333 83.9485 281.3 83.3228 279.356C82.2172 275.918 80.5724 274.758 76.9547 274.568C72.6545 274.334 68.666 276.009 64.9477 279.691C63.2636 278.073 64.1543 276.488 65.3083 275.405C66.7763 274.029 68.5025 272.768 70.3444 271.998C72.4174 271.134 74.7264 270.561 76.9627 270.422C82.5302 270.082 85.9187 272.353 87.6896 277.624C88.7231 280.692 89.2428 283.934 90.0644 287.083C90.8216 289.996 91.6059 292.909 92.491 295.782C93.1662 297.97 94.7032 299.431 96.7958 300.381C99.9813 301.825 103.269 302.188 106.684 301.524C107.393 301.385 108.096 301.215 108.786 300.999C111.84 300.038 114.894 299.05 118.227 297.99C113.603 296.261 109.287 294.653 104.987 293.011C104.894 292.974 104.949 292.565 104.93 292.158C105.336 292.047 105.79 291.776 106.19 291.844C110.814 292.613 115.482 293.213 120.035 294.308C123.521 295.147 124.61 297.174 123.398 300.566C122.353 303.48 120.736 306.216 119.104 308.869C118.704 309.524 117.209 309.912 116.362 309.735C115.852 309.628 115.261 308.148 115.345 307.355C115.492 305.985 116.146 304.674 116.708 302.943L116.714 302.948Z" fill="white"/>
</g>
<g clip-path="url(#clip2_1661_7086)">
<path d="M102.535 371.929C100.167 368.241 98.3633 365.449 96.5772 362.644C95.9746 361.694 95.345 360.753 94.8592 359.75C94.1764 358.343 92.9687 356.667 94.7481 355.456C96.4239 354.315 97.7489 355.894 98.8692 356.953C100.029 358.043 101.004 359.341 101.966 360.622C106.305 366.379 110.636 372.154 114.917 377.96C116.059 379.501 117.219 381.074 118.033 382.796C119.752 386.432 118.563 388.441 114.556 388.452C109.265 388.468 103.973 388.179 98.6837 387.994C96.4439 387.912 94.1767 387.883 91.9708 387.56C90.716 387.377 89.5565 386.636 88.3007 386.126C89.2591 383.471 90.943 383.672 92.5219 383.662C96.5341 383.619 100.542 383.586 104.554 383.521C105.972 383.496 107.382 383.399 109.184 382.581C107.71 381.6 106.281 380.552 104.752 379.654C93.1103 372.858 81.4511 366.075 69.7916 359.315C52.8603 349.489 35.9064 339.685 19.0025 329.805C17.6291 328.999 16.5381 327.708 15.0003 326.368C17.8123 324.788 19.3977 326.276 20.9406 327.124C29.3937 331.744 37.7877 336.458 46.2088 341.14C64.2958 351.211 82.3918 361.287 100.483 371.349C100.755 371.499 101.076 371.529 102.539 371.943L102.535 371.929Z" fill="#FEFEFE"/>
</g>
<g clip-path="url(#clip3_1661_7086)">
<path d="M125.514 222.183C121.09 223.138 116.679 224.176 112.235 225.027C109.78 225.497 107.272 225.726 104.778 225.928C103.702 226.013 102.365 225.724 102.476 224.339C102.527 223.679 103.534 222.858 104.283 222.549C105.479 222.063 106.827 221.933 108.112 221.656C114.974 220.171 121.839 218.678 128.695 217.189C128.724 216.967 128.757 216.738 128.786 216.516C127.305 216.071 125.776 215.744 124.358 215.155C122.383 214.343 120.436 213.436 118.609 212.34C118.144 212.057 117.973 210.891 118.086 210.196C118.131 209.898 119.328 209.488 119.875 209.621C125.301 211.007 130.746 212.344 136.105 213.99C139.354 214.989 139.876 217.429 137.185 219.556C132.513 223.249 127.559 226.59 122.688 230.028C121.812 230.641 120.665 231.223 119.787 230.15C118.932 229.098 119.621 228.144 120.464 227.36C121.424 226.47 122.374 225.567 123.363 224.702C124.145 224.012 124.978 223.384 125.785 222.724C125.695 222.547 125.61 222.364 125.521 222.187L125.514 222.183Z" fill="#FFFEFE"/>
</g>
<g clip-path="url(#clip4_1661_7086)">
<path d="M106.198 118.807C105.21 121.398 104.455 123.361 103.712 125.329C103.462 125.996 103.194 126.66 103.023 127.345C102.783 128.306 102.252 129.5 103.513 130.029C104.7 130.528 105.316 129.379 105.873 128.581C106.45 127.757 106.886 126.827 107.315 125.91C109.257 121.785 111.191 117.649 113.091 113.501C113.599 112.399 114.113 111.275 114.394 110.102C114.987 107.625 113.989 106.525 111.503 107.022C108.221 107.677 104.978 108.521 101.723 109.301C100.345 109.634 98.9436 109.936 97.6181 110.414C96.8641 110.686 96.2417 111.293 95.5294 111.767C96.4686 113.298 97.4864 112.962 98.4665 112.769C100.959 112.292 103.448 111.809 105.944 111.345C106.826 111.183 107.713 111.066 108.936 111.348C108.15 112.143 107.4 112.975 106.569 113.725C100.235 119.414 93.8892 125.096 87.54 130.765C78.3211 139.003 69.0854 147.23 59.8905 155.498C59.1438 156.172 58.6353 157.111 57.8562 158.138C59.8048 158.767 60.5941 157.643 61.4404 156.921C66.0801 152.986 70.6711 149 75.2829 145.031C85.1864 136.495 95.0948 127.956 105.002 119.426C105.151 119.298 105.346 119.239 106.199 118.798L106.198 118.807Z" fill="white"/>
</g>
<g clip-path="url(#clip5_1661_7086)">
<path d="M109.394 12.1672C106.55 11.5846 104.392 11.1493 102.236 10.6993C101.507 10.5458 100.77 10.4092 100.069 10.1756C99.0855 9.84824 97.7325 9.64617 97.9729 8.23541C98.1993 6.90676 99.5599 7.0078 100.578 6.96468C101.63 6.91724 102.696 7.05496 103.747 7.19062C108.482 7.79266 113.221 8.40732 117.952 9.05987C119.211 9.23067 120.492 9.40771 121.686 9.81862C124.207 10.6863 124.618 12.1856 122.783 14.1021C120.361 16.6329 117.793 19.0231 115.276 21.4595C114.208 22.4898 113.153 23.5579 111.987 24.4601C111.323 24.9735 110.438 25.1825 109.618 25.5449C108.794 23.8554 109.663 23.1456 110.383 22.3879C112.205 20.4545 114.03 18.5275 115.841 16.5837C116.481 15.8956 117.082 15.1783 117.52 13.9395C116.376 14.1871 115.22 14.3822 114.091 14.695C105.508 17.0932 96.9242 19.5062 88.3504 21.9296C75.8958 25.4446 63.4414 28.9807 50.974 32.4578C49.9593 32.7388 48.8437 32.6601 47.4993 32.7716C48.0381 30.697 49.4748 30.6315 50.5873 30.2893C56.6693 28.4017 62.7685 26.5857 68.8654 24.7423C81.9674 20.7897 95.0755 16.8349 108.175 12.876C108.372 12.8165 108.534 12.6771 109.402 12.1714L109.394 12.1672Z" fill="white"/>
</g>
<defs>
<clipPath id="clip0_1661_7086">
<rect width="31.6357" height="97.8926" fill="white" transform="translate(27.3975 151.596) rotate(-150)"/>
</clipPath>
<clipPath id="clip1_1661_7086">
<rect width="63.4012" height="23.5999" fill="white" transform="translate(74.4619 262) rotate(34.7785)"/>
</clipPath>
<clipPath id="clip2_1661_7086">
<rect width="119.72" height="31.34" fill="white" transform="translate(112.508 398.553) rotate(-152.828)"/>
</clipPath>
<clipPath id="clip3_1661_7086">
<rect width="28.5897" height="26.3195" fill="white" transform="translate(114.743 202) rotate(28.9572)"/>
</clipPath>
<clipPath id="clip4_1661_7086">
<rect width="75.6073" height="19.9404" fill="white" transform="matrix(-0.779294 0.626658 0.626658 0.779294 108.92 101)"/>
</clipPath>
<clipPath id="clip5_1661_7086">
<rect width="79.1414" height="20.8725" fill="white" transform="translate(126.651 19.7656) rotate(161.26)"/>
</clipPath>
</defs>
</svg>
