<svg width="310" height="204" viewBox="0 0 310 204" fill="none" xmlns="http://www.w3.org/2000/svg">
<path d="M3.43083 8.23487H0.773468V0.379717H3.48444C4.26301 0.379717 4.93182 0.536973 5.49086 0.851486C6.05245 1.16344 6.48386 1.6122 6.78508 2.19775C7.0863 2.78331 7.23691 3.48393 7.23691 4.29962C7.23691 5.11786 7.08502 5.82104 6.78125 6.40916C6.48003 6.99727 6.0448 7.44858 5.47554 7.7631C4.90884 8.07761 4.22727 8.23487 3.43083 8.23487ZM2.19405 7.00366H3.36191C3.90819 7.00366 4.36384 6.90394 4.72888 6.70449C5.09391 6.50249 5.36833 6.20204 5.55213 5.80314C5.73592 5.40169 5.82782 4.90052 5.82782 4.29962C5.82782 3.69872 5.73592 3.2001 5.55213 2.80377C5.36833 2.40487 5.09647 2.10698 4.73654 1.91009C4.37916 1.71064 3.93499 1.61092 3.40403 1.61092H2.19405V7.00366Z" fill="#3F3F3F"/>
<path d="M11.0908 8.34993C10.5165 8.34993 10.0187 8.22336 9.59752 7.97022C9.17632 7.71707 8.84958 7.36292 8.61728 6.90778C8.38754 6.45263 8.27267 5.92077 8.27267 5.3122C8.27267 4.70363 8.38754 4.17049 8.61728 3.71279C8.84958 3.25508 9.17632 2.89965 9.59752 2.64651C10.0187 2.39337 10.5165 2.26679 11.0908 2.26679C11.6652 2.26679 12.163 2.39337 12.5842 2.64651C13.0054 2.89965 13.3308 3.25508 13.5606 3.71279C13.7929 4.17049 13.909 4.70363 13.909 5.3122C13.909 5.92077 13.7929 6.45263 13.5606 6.90778C13.3308 7.36292 13.0054 7.71707 12.5842 7.97022C12.163 8.22336 11.6652 8.34993 11.0908 8.34993ZM11.0985 7.23763C11.4099 7.23763 11.6703 7.15197 11.8796 6.98065C12.089 6.80677 12.2447 6.57408 12.3468 6.28258C12.4514 5.99109 12.5038 5.66634 12.5038 5.30836C12.5038 4.94782 12.4514 4.6218 12.3468 4.3303C12.2447 4.03625 12.089 3.80228 11.8796 3.6284C11.6703 3.45453 11.4099 3.36759 11.0985 3.36759C10.7794 3.36759 10.5139 3.45453 10.3021 3.6284C10.0927 3.80228 9.93575 4.03625 9.83109 4.3303C9.72898 4.6218 9.67793 4.94782 9.67793 5.30836C9.67793 5.66634 9.72898 5.99109 9.83109 6.28258C9.93575 6.57408 10.0927 6.80677 10.3021 6.98065C10.5139 7.15197 10.7794 7.23763 11.0985 7.23763Z" fill="#3F3F3F"/>
<path d="M18.6216 10.4441C18.4327 10.4441 18.2579 10.4288 18.0971 10.3981C17.9388 10.37 17.8124 10.3367 17.718 10.2984L18.0396 9.21676C18.2413 9.27557 18.4212 9.3037 18.5795 9.30114C18.7378 9.29858 18.8769 9.24872 18.9969 9.15156C19.1194 9.05695 19.2228 8.89841 19.307 8.67595L19.4257 8.3576L17.293 2.3435H18.7633L20.1188 6.79271H20.1801L21.5394 2.3435H23.0136L20.6587 8.94827C20.5489 9.26023 20.4034 9.52744 20.2222 9.7499C20.0409 9.97491 19.8189 10.1462 19.5559 10.2639C19.2955 10.384 18.9841 10.4441 18.6216 10.4441Z" fill="#3F3F3F"/>
<path d="M26.3381 8.34993C25.7638 8.34993 25.266 8.22336 24.8448 7.97022C24.4236 7.71707 24.0969 7.36292 23.8646 6.90778C23.6348 6.45263 23.5199 5.92077 23.5199 5.3122C23.5199 4.70363 23.6348 4.17049 23.8646 3.71279C24.0969 3.25508 24.4236 2.89965 24.8448 2.64651C25.266 2.39337 25.7638 2.26679 26.3381 2.26679C26.9125 2.26679 27.4103 2.39337 27.8315 2.64651C28.2527 2.89965 28.5781 3.25508 28.8079 3.71279C29.0402 4.17049 29.1563 4.70363 29.1563 5.3122C29.1563 5.92077 29.0402 6.45263 28.8079 6.90778C28.5781 7.36292 28.2527 7.71707 27.8315 7.97022C27.4103 8.22336 26.9125 8.34993 26.3381 8.34993ZM26.3458 7.23763C26.6572 7.23763 26.9176 7.15197 27.1269 6.98065C27.3362 6.80677 27.492 6.57408 27.5941 6.28258C27.6987 5.99109 27.7511 5.66634 27.7511 5.30836C27.7511 4.94782 27.6987 4.6218 27.5941 4.3303C27.492 4.03625 27.3362 3.80228 27.1269 3.6284C26.9176 3.45453 26.6572 3.36759 26.3458 3.36759C26.0267 3.36759 25.7612 3.45453 25.5493 3.6284C25.34 3.80228 25.183 4.03625 25.0784 4.3303C24.9763 4.6218 24.9252 4.94782 24.9252 5.30836C24.9252 5.66634 24.9763 5.99109 25.0784 6.28258C25.183 6.57408 25.34 6.80677 25.5493 6.98065C25.7612 7.15197 26.0267 7.23763 26.3458 7.23763Z" fill="#3F3F3F"/>
<path d="M34.0814 5.75712V2.3435H35.4675V8.23487H34.1236V7.18777H34.0623C33.9295 7.51762 33.7113 7.78739 33.4075 7.99706C33.1063 8.20674 32.7349 8.31158 32.2933 8.31158C31.9078 8.31158 31.567 8.22592 31.2709 8.0546C30.9773 7.88072 30.7476 7.62885 30.5817 7.299C30.4158 6.96659 30.3328 6.56514 30.3328 6.09464V2.3435H31.7189V5.87986C31.7189 6.25318 31.821 6.54979 32.0252 6.7697C32.2294 6.9896 32.4975 7.09955 32.8293 7.09955C33.0335 7.09955 33.2314 7.04969 33.4228 6.94997C33.6143 6.85024 33.7713 6.70194 33.8938 6.50505C34.0189 6.3056 34.0814 6.05629 34.0814 5.75712Z" fill="#3F3F3F"/>
<path d="M39.5675 8.23487V2.3435H40.9115V3.3254H40.9728C41.08 2.98531 41.2638 2.72322 41.5241 2.53912C41.7871 2.35245 42.087 2.25912 42.424 2.25912C42.5006 2.25912 42.5861 2.26296 42.6805 2.27063C42.7775 2.27574 42.8579 2.28469 42.9218 2.29748V3.57471C42.863 3.55425 42.7699 3.53635 42.6422 3.52101C42.5172 3.50311 42.3959 3.49416 42.2785 3.49416C42.0258 3.49416 41.7986 3.54914 41.5969 3.65909C41.3978 3.76648 41.2408 3.91607 41.1259 4.10784C41.0111 4.29962 40.9536 4.5208 40.9536 4.77139V8.23487H39.5675Z" fill="#3F3F3F"/>
<path d="M46.2042 8.34993C45.6145 8.34993 45.1053 8.22719 44.6764 7.98172C44.2501 7.73369 43.9221 7.38338 43.6924 6.93079C43.4626 6.47564 43.3477 5.93995 43.3477 5.3237C43.3477 4.71769 43.4626 4.18583 43.6924 3.72813C43.9246 3.26786 44.2488 2.90988 44.6649 2.65418C45.081 2.39592 45.5699 2.26679 46.1315 2.26679C46.4939 2.26679 46.836 2.3256 47.1576 2.44323C47.4818 2.55829 47.7677 2.73728 48.0153 2.9802C48.2655 3.22312 48.4621 3.53252 48.605 3.9084C48.748 4.28172 48.8195 4.72664 48.8195 5.24316V5.6689H43.9987V4.73303H47.4908C47.4882 4.4671 47.4308 4.23058 47.3185 4.02346C47.2061 3.81379 47.0492 3.64886 46.8475 3.52868C46.6484 3.4085 46.4161 3.34841 46.1506 3.34841C45.8673 3.34841 45.6184 3.41745 45.4039 3.55553C45.1895 3.69105 45.0223 3.87004 44.9023 4.0925C44.7849 4.31241 44.7249 4.55404 44.7224 4.81742V5.63438C44.7224 5.97702 44.7849 6.27108 44.91 6.51655C45.0351 6.75947 45.2099 6.94613 45.4346 7.07654C45.6592 7.20439 45.9221 7.26831 46.2234 7.26831C46.425 7.26831 46.6075 7.24019 46.7709 7.18393C46.9343 7.12512 47.076 7.03946 47.1959 6.92695C47.3159 6.81444 47.4065 6.67509 47.4678 6.50888L48.762 6.65463C48.6803 6.99727 48.5246 7.29644 48.2949 7.55214C48.0677 7.80529 47.7767 8.00218 47.4218 8.14281C47.067 8.28089 46.6611 8.34993 46.2042 8.34993Z" fill="#3F3F3F"/>
<path d="M53.9169 10.4441V7.30667H53.8594C53.788 7.44986 53.6846 7.602 53.5493 7.7631C53.414 7.92163 53.2353 8.05715 53.0132 8.16966C52.7911 8.28217 52.5116 8.33842 52.1747 8.33842C51.7126 8.33842 51.2991 8.21952 50.934 7.98172C50.569 7.74392 50.2806 7.39872 50.0687 6.94613C49.8568 6.49354 49.7509 5.94378 49.7509 5.29686C49.7509 4.64226 49.8581 4.08994 50.0725 3.63991C50.2895 3.18732 50.5818 2.84596 50.9494 2.61583C51.3169 2.38314 51.7267 2.26679 52.1785 2.26679C52.5231 2.26679 52.8064 2.3256 53.0285 2.44323C53.2506 2.55829 53.4268 2.69765 53.5569 2.8613C53.6871 3.02239 53.788 3.17453 53.8594 3.31773H53.9437V2.3435H55.3068V10.4441H53.9169ZM52.5614 7.19927C52.8549 7.19927 53.1051 7.12001 53.3119 6.96147C53.5187 6.80038 53.6756 6.57664 53.7829 6.29026C53.8901 6.00387 53.9437 5.67018 53.9437 5.28918C53.9437 4.90819 53.8901 4.57706 53.7829 4.29578C53.6782 4.01451 53.5225 3.79589 53.3157 3.63991C53.1115 3.48393 52.8601 3.40594 52.5614 3.40594C52.2525 3.40594 51.9947 3.48649 51.7879 3.64758C51.5812 3.80867 51.4254 4.03113 51.3208 4.31496C51.2161 4.59879 51.1638 4.92353 51.1638 5.28918C51.1638 5.6574 51.2161 5.98597 51.3208 6.27491C51.428 6.5613 51.585 6.7876 51.7917 6.9538C52.0011 7.11745 52.2576 7.19927 52.5614 7.19927Z" fill="#3F3F3F"/>
<path d="M60.4799 5.75712V2.3435H61.866V8.23487H60.522V7.18777H60.4607C60.328 7.51762 60.1097 7.78739 59.806 7.99706C59.5047 8.20674 59.1333 8.31158 58.6917 8.31158C58.3062 8.31158 57.9655 8.22592 57.6693 8.0546C57.3758 7.88072 57.146 7.62885 56.9801 7.299C56.8142 6.96659 56.7312 6.56514 56.7312 6.09464V2.3435H58.1173V5.87986C58.1173 6.25318 58.2195 6.54979 58.4237 6.7697C58.6279 6.9896 58.8959 7.09955 59.2278 7.09955C59.432 7.09955 59.6298 7.04969 59.8213 6.94997C60.0127 6.85024 60.1697 6.70194 60.2922 6.50505C60.4173 6.3056 60.4799 6.05629 60.4799 5.75712Z" fill="#3F3F3F"/>
<path d="M63.2913 8.23487V2.3435H64.6775V8.23487H63.2913ZM63.9882 1.50736C63.7687 1.50736 63.5798 1.43449 63.4215 1.28874C63.2633 1.14043 63.1841 0.962716 63.1841 0.755598C63.1841 0.545923 63.2633 0.36821 63.4215 0.22246C63.5798 0.0741533 63.7687 0 63.9882 0C64.2103 0 64.3992 0.0741533 64.5549 0.22246C64.7132 0.36821 64.7923 0.545923 64.7923 0.755598C64.7923 0.962716 64.7132 1.14043 64.5549 1.28874C64.3992 1.43449 64.2103 1.50736 63.9882 1.50736Z" fill="#3F3F3F"/>
<path d="M66.1028 8.23487V2.3435H67.4468V3.3254H67.5081C67.6153 2.98531 67.7991 2.72322 68.0595 2.53912C68.3224 2.35245 68.6223 2.25912 68.9593 2.25912C69.0359 2.25912 69.1214 2.26296 69.2159 2.27063C69.3129 2.27574 69.3933 2.28469 69.4571 2.29748V3.57471C69.3984 3.55425 69.3052 3.53635 69.1776 3.52101C69.0525 3.50311 68.9312 3.49416 68.8138 3.49416C68.5611 3.49416 68.3339 3.54914 68.1322 3.65909C67.9331 3.76648 67.7761 3.91607 67.6613 4.10784C67.5464 4.29962 67.4889 4.5208 67.4889 4.77139V8.23487H66.1028Z" fill="#3F3F3F"/>
<path d="M72.7395 8.34993C72.1499 8.34993 71.6406 8.22719 71.2117 7.98172C70.7854 7.73369 70.4574 7.38338 70.2277 6.93079C69.9979 6.47564 69.8831 5.93995 69.8831 5.3237C69.8831 4.71769 69.9979 4.18583 70.2277 3.72813C70.46 3.26786 70.7842 2.90988 71.2003 2.65418C71.6163 2.39592 72.1052 2.26679 72.6668 2.26679C73.0293 2.26679 73.3713 2.3256 73.693 2.44323C74.0172 2.55829 74.3031 2.73728 74.5507 2.9802C74.8008 3.22312 74.9974 3.53252 75.1404 3.9084C75.2833 4.28172 75.3548 4.72664 75.3548 5.24316V5.6689H70.534V4.73303H74.0261C74.0235 4.4671 73.9661 4.23058 73.8538 4.02346C73.7415 3.81379 73.5845 3.64886 73.3828 3.52868C73.1837 3.4085 72.9514 3.34841 72.6859 3.34841C72.4026 3.34841 72.1537 3.41745 71.9393 3.55553C71.7248 3.69105 71.5576 3.87004 71.4377 4.0925C71.3202 4.31241 71.2602 4.55404 71.2577 4.81742V5.63438C71.2577 5.97702 71.3202 6.27108 71.4453 6.51655C71.5704 6.75947 71.7453 6.94613 71.9699 7.07654C72.1945 7.20439 72.4575 7.26831 72.7587 7.26831C72.9603 7.26831 73.1429 7.24019 73.3062 7.18393C73.4696 7.12512 73.6113 7.03946 73.7313 6.92695C73.8512 6.81444 73.9419 6.67509 74.0031 6.50888L75.2973 6.65463C75.2157 6.99727 75.0599 7.29644 74.8302 7.55214C74.603 7.80529 74.312 8.00218 73.9572 8.14281C73.6023 8.28089 73.1965 8.34993 72.7395 8.34993Z" fill="#3F3F3F"/>
<path d="M81.7675 8.34993C81.1931 8.34993 80.6953 8.22336 80.2742 7.97022C79.853 7.71707 79.5262 7.36292 79.2939 6.90778C79.0642 6.45263 78.9493 5.92077 78.9493 5.3122C78.9493 4.70363 79.0642 4.17049 79.2939 3.71279C79.5262 3.25508 79.853 2.89965 80.2742 2.64651C80.6953 2.39337 81.1931 2.26679 81.7675 2.26679C82.3418 2.26679 82.8396 2.39337 83.2608 2.64651C83.682 2.89965 84.0075 3.25508 84.2372 3.71279C84.4695 4.17049 84.5857 4.70363 84.5857 5.3122C84.5857 5.92077 84.4695 6.45263 84.2372 6.90778C84.0075 7.36292 83.682 7.71707 83.2608 7.97022C82.8396 8.22336 82.3418 8.34993 81.7675 8.34993ZM81.7751 7.23763C82.0866 7.23763 82.3469 7.15197 82.5563 6.98065C82.7656 6.80677 82.9213 6.57408 83.0234 6.28258C83.1281 5.99109 83.1804 5.66634 83.1804 5.30836C83.1804 4.94782 83.1281 4.6218 83.0234 4.3303C82.9213 4.03625 82.7656 3.80228 82.5563 3.6284C82.3469 3.45453 82.0866 3.36759 81.7751 3.36759C81.4561 3.36759 81.1906 3.45453 80.9787 3.6284C80.7694 3.80228 80.6124 4.03625 80.5077 4.3303C80.4056 4.6218 80.3546 4.94782 80.3546 5.30836C80.3546 5.66634 80.4056 5.99109 80.5077 6.28258C80.6124 6.57408 80.7694 6.80677 80.9787 6.98065C81.1906 7.15197 81.4561 7.23763 81.7751 7.23763Z" fill="#3F3F3F"/>
<path d="M89.5108 5.75712V2.3435H90.8969V8.23487H89.5529V7.18777H89.4916C89.3589 7.51762 89.1406 7.78739 88.8369 7.99706C88.5357 8.20674 88.1642 8.31158 87.7226 8.31158C87.3372 8.31158 86.9964 8.22592 86.7003 8.0546C86.4067 7.88072 86.177 7.62885 86.011 7.299C85.8451 6.96659 85.7621 6.56514 85.7621 6.09464V2.3435H87.1483V5.87986C87.1483 6.25318 87.2504 6.54979 87.4546 6.7697C87.6588 6.9896 87.9268 7.09955 88.2587 7.09955C88.4629 7.09955 88.6607 7.04969 88.8522 6.94997C89.0436 6.85024 89.2006 6.70194 89.3232 6.50505C89.4482 6.3056 89.5108 6.05629 89.5108 5.75712Z" fill="#3F3F3F"/>
<path d="M92.3223 8.23487V2.3435H93.6663V3.3254H93.7275C93.8347 2.98531 94.0185 2.72322 94.2789 2.53912C94.5418 2.35245 94.8418 2.25912 95.1787 2.25912C95.2553 2.25912 95.3408 2.26296 95.4353 2.27063C95.5323 2.27574 95.6127 2.28469 95.6765 2.29748V3.57471C95.6178 3.55425 95.5246 3.53635 95.397 3.52101C95.2719 3.50311 95.1507 3.49416 95.0332 3.49416C94.7805 3.49416 94.5533 3.54914 94.3517 3.65909C94.1525 3.76648 93.9956 3.91607 93.8807 4.10784C93.7658 4.29962 93.7084 4.5208 93.7084 4.77139V8.23487H92.3223Z" fill="#3F3F3F"/>
<path d="M99.3332 8.23487V0.379717H102.274C102.876 0.379717 103.382 0.492225 103.79 0.717243C104.201 0.94226 104.511 1.25166 104.721 1.64544C104.933 2.03666 105.039 2.48158 105.039 2.9802C105.039 3.48393 104.933 3.93141 104.721 4.32263C104.509 4.71386 104.196 5.02198 103.783 5.24699C103.369 5.46945 102.86 5.58068 102.255 5.58068H100.306V4.41085H102.063C102.416 4.41085 102.704 4.34948 102.929 4.22675C103.153 4.10401 103.319 3.93525 103.427 3.72046C103.536 3.50567 103.591 3.25892 103.591 2.9802C103.591 2.70149 103.536 2.45601 103.427 2.24378C103.319 2.03155 103.152 1.86662 102.925 1.749C102.7 1.62882 102.411 1.56873 102.056 1.56873H100.754V8.23487H99.3332Z" fill="#3F3F3F"/>
<path d="M106.211 8.23487V2.3435H107.597V8.23487H106.211ZM106.908 1.50736C106.689 1.50736 106.5 1.43449 106.341 1.28874C106.183 1.14043 106.104 0.962716 106.104 0.755598C106.104 0.545923 106.183 0.36821 106.341 0.22246C106.5 0.0741533 106.689 0 106.908 0C107.13 0 107.319 0.0741533 107.475 0.22246C107.633 0.36821 107.712 0.545923 107.712 0.755598C107.712 0.962716 107.633 1.14043 107.475 1.28874C107.319 1.43449 107.13 1.50736 106.908 1.50736Z" fill="#3F3F3F"/>
<path d="M111.588 8.34993C111.001 8.34993 110.497 8.2208 110.076 7.96254C109.657 7.70429 109.334 7.34758 109.107 6.89243C108.882 6.43473 108.77 5.90798 108.77 5.3122C108.77 4.71386 108.885 4.18583 109.115 3.72813C109.344 3.26786 109.669 2.90988 110.087 2.65418C110.508 2.39592 111.006 2.26679 111.58 2.26679C112.058 2.26679 112.48 2.35501 112.848 2.53144C113.218 2.70532 113.513 2.95207 113.732 3.2717C113.952 3.58877 114.077 3.95954 114.108 4.384H112.783C112.729 4.10017 112.602 3.86365 112.4 3.67443C112.201 3.48265 111.934 3.38677 111.6 3.38677C111.316 3.38677 111.067 3.46348 110.853 3.6169C110.639 3.76776 110.471 3.98511 110.351 4.26894C110.234 4.55276 110.175 4.89285 110.175 5.28918C110.175 5.69064 110.234 6.03583 110.351 6.32478C110.469 6.61116 110.633 6.83234 110.845 6.98832C111.06 7.14174 111.311 7.21845 111.6 7.21845C111.804 7.21845 111.986 7.1801 112.147 7.10339C112.311 7.02412 112.447 6.91033 112.557 6.76203C112.667 6.61372 112.742 6.43345 112.783 6.22122H114.108C114.074 6.63801 113.952 7.0075 113.74 7.32968C113.528 7.64931 113.24 7.8999 112.875 8.08144C112.51 8.26044 112.081 8.34993 111.588 8.34993Z" fill="#3F3F3F"/>
<path d="M116.509 6.38614L116.506 4.71002H116.728L118.841 2.3435H120.461L117.861 5.24316H117.574L116.509 6.38614ZM115.246 8.23487V0.379717H116.632V8.23487H115.246ZM118.937 8.23487L117.023 5.55384L117.957 4.57578L120.595 8.23487H118.937Z" fill="#3F3F3F"/>
<path d="M124.655 4.39167V5.53466H121.124V4.39167H124.655Z" fill="#3F3F3F"/>
<path d="M131.117 0.379717H132.538V5.51165C132.538 6.07419 132.405 6.56897 132.14 6.99599C131.877 7.42301 131.507 7.7567 131.029 7.99706C130.552 8.23487 129.994 8.35377 129.356 8.35377C128.715 8.35377 128.156 8.23487 127.679 7.99706C127.201 7.7567 126.831 7.42301 126.568 6.99599C126.305 6.56897 126.174 6.07419 126.174 5.51165V0.379717H127.595V5.39274C127.595 5.72004 127.666 6.01154 127.809 6.26724C127.954 6.52294 128.159 6.72367 128.422 6.86942C128.685 7.01261 128.996 7.08421 129.356 7.08421C129.716 7.08421 130.027 7.01261 130.29 6.86942C130.556 6.72367 130.76 6.52294 130.903 6.26724C131.046 6.01154 131.117 5.72004 131.117 5.39274V0.379717Z" fill="#3F3F3F"/>
<path d="M134.021 10.4441V2.3435H135.384V3.31773H135.464C135.536 3.17453 135.636 3.02239 135.767 2.8613C135.897 2.69765 136.073 2.55829 136.295 2.44323C136.517 2.3256 136.801 2.26679 137.145 2.26679C137.6 2.26679 138.009 2.38314 138.374 2.61583C138.742 2.84596 139.033 3.18732 139.247 3.63991C139.464 4.08994 139.573 4.64226 139.573 5.29686C139.573 5.94378 139.467 6.49354 139.255 6.94613C139.043 7.39872 138.755 7.74392 138.39 7.98172C138.025 8.21952 137.611 8.33842 137.149 8.33842C136.812 8.33842 136.532 8.28217 136.31 8.16966C136.088 8.05715 135.91 7.92163 135.774 7.7631C135.642 7.602 135.538 7.44986 135.464 7.30667H135.407V10.4441H134.021ZM135.38 5.28918C135.38 5.67018 135.434 6.00387 135.541 6.29026C135.651 6.57664 135.808 6.80038 136.012 6.96147C136.219 7.12001 136.469 7.19927 136.762 7.19927C137.069 7.19927 137.325 7.11745 137.532 6.9538C137.739 6.7876 137.894 6.5613 137.999 6.27491C138.106 5.98597 138.16 5.6574 138.16 5.28918C138.16 4.92353 138.108 4.59879 138.003 4.31496C137.898 4.03113 137.742 3.80867 137.536 3.64758C137.329 3.48649 137.071 3.40594 136.762 3.40594C136.466 3.40594 136.215 3.48393 136.008 3.63991C135.801 3.79589 135.644 4.01451 135.537 4.29578C135.432 4.57706 135.38 4.90819 135.38 5.28918Z" fill="#3F3F3F"/>
<path d="M147.757 2.53912C147.722 2.20415 147.571 1.94333 147.306 1.75667C147.043 1.57001 146.701 1.47668 146.279 1.47668C145.983 1.47668 145.729 1.52142 145.517 1.61092C145.305 1.70041 145.143 1.82187 145.031 1.97529C144.919 2.12871 144.861 2.30387 144.859 2.50076C144.859 2.66441 144.896 2.80632 144.97 2.9265C145.046 3.04668 145.15 3.14896 145.28 3.23335C145.41 3.31517 145.554 3.38421 145.713 3.44046C145.871 3.49672 146.03 3.54402 146.191 3.58238L146.926 3.76648C147.223 3.83552 147.507 3.92885 147.78 4.04648C148.056 4.1641 148.302 4.31241 148.519 4.4914C148.739 4.67039 148.912 4.88646 149.04 5.1396C149.168 5.39274 149.232 5.68936 149.232 6.02944C149.232 6.4897 149.114 6.89499 148.879 7.2453C148.644 7.59306 148.305 7.86538 147.861 8.06227C147.419 8.2566 146.884 8.35377 146.256 8.35377C145.646 8.35377 145.117 8.25916 144.667 8.06994C144.221 7.88072 143.871 7.60456 143.618 7.24147C143.368 6.87837 143.233 6.43601 143.212 5.91438H144.61C144.63 6.18798 144.715 6.41555 144.863 6.5971C145.011 6.77865 145.203 6.91417 145.441 7.00366C145.681 7.09316 145.949 7.13791 146.245 7.13791C146.554 7.13791 146.824 7.09188 147.057 6.99983C147.291 6.90522 147.475 6.77481 147.608 6.6086C147.741 6.43984 147.808 6.24295 147.811 6.01793C147.808 5.81337 147.748 5.64461 147.631 5.51165C147.514 5.37612 147.349 5.26361 147.137 5.17412C146.928 5.08207 146.683 5.00024 146.402 4.92865L145.51 4.69851C144.864 4.53231 144.353 4.28044 143.978 3.94292C143.605 3.60283 143.419 3.15152 143.419 2.58898C143.419 2.12616 143.544 1.72087 143.794 1.37312C144.047 1.02536 144.39 0.755598 144.824 0.563822C145.258 0.369489 145.75 0.272322 146.298 0.272322C146.855 0.272322 147.343 0.369489 147.761 0.563822C148.182 0.755598 148.513 1.02281 148.753 1.36545C148.993 1.70553 149.117 2.09675 149.124 2.53912H147.757Z" fill="#3F3F3F"/>
<path d="M153.04 8.34993C152.451 8.34993 151.942 8.22719 151.513 7.98172C151.086 7.73369 150.758 7.38338 150.529 6.93079C150.299 6.47564 150.184 5.93995 150.184 5.3237C150.184 4.71769 150.299 4.18583 150.529 3.72813C150.761 3.26786 151.085 2.90988 151.501 2.65418C151.917 2.39592 152.406 2.26679 152.968 2.26679C153.33 2.26679 153.672 2.3256 153.994 2.44323C154.318 2.55829 154.604 2.73728 154.852 2.9802C155.102 3.22312 155.298 3.53252 155.441 3.9084C155.584 4.28172 155.656 4.72664 155.656 5.24316V5.6689H150.835V4.73303H154.327C154.324 4.4671 154.267 4.23058 154.155 4.02346C154.042 3.81379 153.885 3.64886 153.684 3.52868C153.485 3.4085 153.252 3.34841 152.987 3.34841C152.704 3.34841 152.455 3.41745 152.24 3.55553C152.026 3.69105 151.859 3.87004 151.739 4.0925C151.621 4.31241 151.561 4.55404 151.559 4.81742V5.63438C151.559 5.97702 151.621 6.27108 151.746 6.51655C151.871 6.75947 152.046 6.94613 152.271 7.07654C152.495 7.20439 152.758 7.26831 153.06 7.26831C153.261 7.26831 153.444 7.24019 153.607 7.18393C153.771 7.12512 153.912 7.03946 154.032 6.92695C154.152 6.81444 154.243 6.67509 154.304 6.50888L155.598 6.65463C155.517 6.99727 155.361 7.29644 155.131 7.55214C154.904 7.80529 154.613 8.00218 154.258 8.14281C153.903 8.28089 153.497 8.34993 153.04 8.34993Z" fill="#3F3F3F"/>
<path d="M156.828 8.23487V2.3435H158.172V3.3254H158.234C158.341 2.98531 158.525 2.72322 158.785 2.53912C159.048 2.35245 159.348 2.25912 159.685 2.25912C159.761 2.25912 159.847 2.26296 159.941 2.27063C160.038 2.27574 160.119 2.28469 160.183 2.29748V3.57471C160.124 3.55425 160.031 3.53635 159.903 3.52101C159.778 3.50311 159.657 3.49416 159.539 3.49416C159.287 3.49416 159.059 3.54914 158.858 3.65909C158.659 3.76648 158.502 3.91607 158.387 4.10784C158.272 4.29962 158.214 4.5208 158.214 4.77139V8.23487H156.828Z" fill="#3F3F3F"/>
<path d="M166.536 2.3435L164.441 8.23487H162.91L160.815 2.3435H162.293L163.645 6.71983H163.706L165.062 2.3435H166.536Z" fill="#3F3F3F"/>
<path d="M167.495 8.23487V2.3435H168.881V8.23487H167.495ZM168.192 1.50736C167.973 1.50736 167.784 1.43449 167.625 1.28874C167.467 1.14043 167.388 0.962716 167.388 0.755598C167.388 0.545923 167.467 0.36821 167.625 0.22246C167.784 0.0741533 167.973 0 168.192 0C168.414 0 168.603 0.0741533 168.759 0.22246C168.917 0.36821 168.996 0.545923 168.996 0.755598C168.996 0.962716 168.917 1.14043 168.759 1.28874C168.603 1.43449 168.414 1.50736 168.192 1.50736Z" fill="#3F3F3F"/>
<path d="M172.872 8.34993C172.285 8.34993 171.781 8.2208 171.36 7.96254C170.941 7.70429 170.618 7.34758 170.391 6.89243C170.166 6.43473 170.054 5.90798 170.054 5.3122C170.054 4.71386 170.169 4.18583 170.399 3.72813C170.628 3.26786 170.952 2.90988 171.371 2.65418C171.792 2.39592 172.29 2.26679 172.864 2.26679C173.342 2.26679 173.764 2.35501 174.132 2.53144C174.502 2.70532 174.797 2.95207 175.016 3.2717C175.236 3.58877 175.361 3.95954 175.392 4.384H174.067C174.013 4.10017 173.886 3.86365 173.684 3.67443C173.485 3.48265 173.218 3.38677 172.884 3.38677C172.6 3.38677 172.351 3.46348 172.137 3.6169C171.922 3.76776 171.755 3.98511 171.635 4.26894C171.518 4.55276 171.459 4.89285 171.459 5.28918C171.459 5.69064 171.518 6.03583 171.635 6.32478C171.753 6.61116 171.917 6.83234 172.129 6.98832C172.344 7.14174 172.595 7.21845 172.884 7.21845C173.088 7.21845 173.27 7.1801 173.431 7.10339C173.595 7.02412 173.731 6.91033 173.841 6.76203C173.951 6.61372 174.026 6.43345 174.067 6.22122H175.392C175.358 6.63801 175.236 7.0075 175.024 7.32968C174.812 7.64931 174.524 7.8999 174.159 8.08144C173.794 8.26044 173.365 8.34993 172.872 8.34993Z" fill="#3F3F3F"/>
<path d="M179.134 8.34993C178.544 8.34993 178.035 8.22719 177.606 7.98172C177.179 7.73369 176.851 7.38338 176.622 6.93079C176.392 6.47564 176.277 5.93995 176.277 5.3237C176.277 4.71769 176.392 4.18583 176.622 3.72813C176.854 3.26786 177.178 2.90988 177.594 2.65418C178.01 2.39592 178.499 2.26679 179.061 2.26679C179.423 2.26679 179.765 2.3256 180.087 2.44323C180.411 2.55829 180.697 2.73728 180.945 2.9802C181.195 3.22312 181.391 3.53252 181.534 3.9084C181.677 4.28172 181.749 4.72664 181.749 5.24316V5.6689H176.928V4.73303H180.42C180.418 4.4671 180.36 4.23058 180.248 4.02346C180.135 3.81379 179.979 3.64886 179.777 3.52868C179.578 3.4085 179.345 3.34841 179.08 3.34841C178.797 3.34841 178.548 3.41745 178.333 3.55553C178.119 3.69105 177.952 3.87004 177.832 4.0925C177.714 4.31241 177.654 4.55404 177.652 4.81742V5.63438C177.652 5.97702 177.714 6.27108 177.839 6.51655C177.964 6.75947 178.139 6.94613 178.364 7.07654C178.589 7.20439 178.851 7.26831 179.153 7.26831C179.354 7.26831 179.537 7.24019 179.7 7.18393C179.864 7.12512 180.005 7.03946 180.125 6.92695C180.245 6.81444 180.336 6.67509 180.397 6.50888L181.691 6.65463C181.61 6.99727 181.454 7.29644 181.224 7.55214C180.997 7.80529 180.706 8.00218 180.351 8.14281C179.996 8.28089 179.59 8.34993 179.134 8.34993Z" fill="#3F3F3F"/>
<path d="M187.57 3.90073L186.306 4.0388C186.271 3.91095 186.208 3.79077 186.119 3.67827C186.032 3.56576 185.914 3.47498 185.766 3.40594C185.618 3.3369 185.437 3.30238 185.223 3.30238C184.934 3.30238 184.692 3.36503 184.495 3.49032C184.301 3.61562 184.205 3.77799 184.208 3.97744C184.205 4.14876 184.268 4.28811 184.396 4.39551C184.526 4.5029 184.74 4.59112 185.039 4.66016L186.042 4.87495C186.599 4.99513 187.012 5.18563 187.283 5.44644C187.556 5.70726 187.694 6.04862 187.696 6.47053C187.694 6.84129 187.585 7.16859 187.371 7.45242C187.159 7.73369 186.864 7.95359 186.486 8.11213C186.108 8.27066 185.675 8.34993 185.184 8.34993C184.465 8.34993 183.885 8.19907 183.446 7.89734C183.007 7.59306 182.745 7.16987 182.661 6.62778L184.013 6.49737C184.074 6.7633 184.204 6.96403 184.403 7.09955C184.602 7.23507 184.861 7.30283 185.181 7.30283C185.51 7.30283 185.774 7.23507 185.973 7.09955C186.175 6.96403 186.276 6.79655 186.276 6.5971C186.276 6.42834 186.211 6.28898 186.08 6.17903C185.953 6.06907 185.754 5.98469 185.483 5.92588L184.48 5.71493C183.916 5.59731 183.498 5.39914 183.228 5.12042C182.957 4.83915 182.823 4.48373 182.826 4.05415C182.823 3.69105 182.921 3.37654 183.121 3.11061C183.322 2.84212 183.602 2.635 183.959 2.48925C184.319 2.34095 184.734 2.26679 185.204 2.26679C185.893 2.26679 186.435 2.41382 186.831 2.70788C187.229 3.00194 187.475 3.39955 187.57 3.90073Z" fill="#3F3F3F"/>
<path d="M190.164 5.92588V5.82616C190.167 5.36334 190.21 4.99513 190.294 4.72153C190.381 4.44793 190.504 4.22802 190.662 4.06182C190.82 3.89305 191.013 3.73836 191.24 3.59772C191.396 3.50055 191.535 3.39444 191.657 3.27937C191.783 3.16175 191.881 3.03134 191.952 2.88815C192.024 2.7424 192.059 2.58003 192.059 2.40104C192.059 2.19903 192.012 2.02388 191.918 1.87557C191.823 1.72726 191.696 1.6122 191.535 1.53037C191.377 1.44855 191.199 1.40764 191.003 1.40764C190.821 1.40764 190.649 1.44727 190.486 1.52654C190.325 1.60325 190.191 1.72087 190.084 1.87941C189.979 2.03538 189.92 2.23355 189.908 2.47391H188.544C188.557 1.98808 188.675 1.58151 188.897 1.25422C189.121 0.926918 189.417 0.681444 189.785 0.517795C190.155 0.354146 190.564 0.272322 191.01 0.272322C191.498 0.272322 191.927 0.357982 192.297 0.529302C192.67 0.700622 192.959 0.944817 193.166 1.26189C193.375 1.5764 193.48 1.94972 193.48 2.38186C193.48 2.67336 193.433 2.93417 193.338 3.16431C193.246 3.39444 193.115 3.599 192.944 3.77799C192.773 3.95698 192.57 4.11679 192.335 4.25743C192.128 4.38528 191.959 4.51825 191.826 4.65632C191.696 4.7944 191.599 4.95677 191.535 5.14344C191.474 5.32754 191.442 5.55511 191.439 5.82616V5.92588H190.164ZM190.83 8.31925C190.601 8.31925 190.403 8.23742 190.237 8.07377C190.071 7.91013 189.988 7.71068 189.988 7.47543C189.988 7.2453 190.071 7.04841 190.237 6.88476C190.403 6.72111 190.601 6.63929 190.83 6.63929C191.058 6.63929 191.254 6.72111 191.42 6.88476C191.588 7.04841 191.673 7.2453 191.673 7.47543C191.673 7.63141 191.633 7.77332 191.554 7.90118C191.477 8.02903 191.375 8.13131 191.248 8.20802C191.123 8.28217 190.984 8.31925 190.83 8.31925Z" fill="#3F3F3F"/>
<path d="M1.78051 79.1153H0.264205L3.02495 71.2601H4.77866L7.54323 79.1153H6.02693L3.93244 72.871H3.87117L1.78051 79.1153ZM1.83029 76.0353H5.96566V77.1783H1.83029V76.0353Z" fill="#484848"/>
<path d="M10.5184 79.2188C10.0564 79.2188 9.64283 79.0999 9.27779 78.8621C8.91276 78.6243 8.6243 78.2791 8.41243 77.8265C8.20055 77.3739 8.09462 76.8242 8.09462 76.1773C8.09462 75.5227 8.20183 74.9703 8.41625 74.5203C8.63323 74.0677 8.92552 73.7264 9.29311 73.4962C9.6607 73.2635 10.0704 73.1472 10.5222 73.1472C10.8668 73.1472 11.1502 73.206 11.3723 73.3236C11.5944 73.4387 11.7705 73.5781 11.9007 73.7417C12.0309 73.9028 12.1317 74.0549 12.2032 74.1981H12.2606V71.2601H13.6506V79.1153H12.2874V78.1871H12.2032C12.1317 78.3303 12.0283 78.4824 11.893 78.6435C11.7577 78.802 11.5791 78.9376 11.357 79.0501C11.1349 79.1626 10.8554 79.2188 10.5184 79.2188ZM10.9051 78.0797C11.1987 78.0797 11.4489 78.0004 11.6556 77.8419C11.8624 77.6808 12.0194 77.457 12.1266 77.1707C12.2338 76.8843 12.2874 76.5506 12.2874 76.1696C12.2874 75.7886 12.2338 75.4575 12.1266 75.1762C12.0219 74.8949 11.8662 74.6763 11.6595 74.5203C11.4552 74.3643 11.2038 74.2863 10.9051 74.2863C10.5963 74.2863 10.3384 74.3669 10.1317 74.528C9.9249 74.6891 9.76919 74.9115 9.66453 75.1954C9.55987 75.4792 9.50754 75.8039 9.50754 76.1696C9.50754 76.5378 9.55987 76.8664 9.66453 77.1553C9.77174 77.4417 9.92873 77.668 10.1355 77.8342C10.3448 77.9979 10.6014 78.0797 10.9051 78.0797Z" fill="#484848"/>
<path d="M17.3102 79.2188C16.8481 79.2188 16.4346 79.0999 16.0696 78.8621C15.7045 78.6243 15.4161 78.2791 15.2042 77.8265C14.9923 77.3739 14.8864 76.8242 14.8864 76.1773C14.8864 75.5227 14.9936 74.9703 15.208 74.5203C15.425 74.0677 15.7173 73.7264 16.0849 73.4962C16.4525 73.2635 16.8622 73.1472 17.314 73.1472C17.6586 73.1472 17.942 73.206 18.1641 73.3236C18.3861 73.4387 18.5623 73.5781 18.6925 73.7417C18.8227 73.9028 18.9235 74.0549 18.995 74.1981H19.0524V71.2601H20.4423V79.1153H19.0792V78.1871H18.995C18.9235 78.3303 18.8201 78.4824 18.6848 78.6435C18.5495 78.802 18.3708 78.9376 18.1487 79.0501C17.9267 79.1626 17.6471 79.2188 17.3102 79.2188ZM17.6969 78.0797C17.9905 78.0797 18.2406 78.0004 18.4474 77.8419C18.6542 77.6808 18.8112 77.457 18.9184 77.1707C19.0256 76.8843 19.0792 76.5506 19.0792 76.1696C19.0792 75.7886 19.0256 75.4575 18.9184 75.1762C18.8137 74.8949 18.658 74.6763 18.4512 74.5203C18.247 74.3643 17.9956 74.2863 17.6969 74.2863C17.388 74.2863 17.1302 74.3669 16.9235 74.528C16.7167 74.6891 16.561 74.9115 16.4563 75.1954C16.3516 75.4792 16.2993 75.8039 16.2993 76.1696C16.2993 76.5378 16.3516 76.8664 16.4563 77.1553C16.5635 77.4417 16.7205 77.668 16.9273 77.8342C17.1366 77.9979 17.3931 78.0797 17.6969 78.0797Z" fill="#484848"/>
<path d="M21.9194 79.1153V73.2239H23.2634V74.2058H23.3247C23.4319 73.8657 23.6157 73.6036 23.8761 73.4195C24.139 73.2329 24.4389 73.1395 24.7759 73.1395C24.8525 73.1395 24.938 73.1434 25.0324 73.151C25.1294 73.1561 25.2098 73.1651 25.2737 73.1779V74.4551C25.2149 74.4347 25.1218 74.4168 24.9941 74.4014C24.8691 74.3835 24.7478 74.3746 24.6304 74.3746C24.3777 74.3746 24.1505 74.4295 23.9488 74.5395C23.7497 74.6469 23.5927 74.7965 23.4778 74.9882C23.363 75.18 23.3055 75.4012 23.3055 75.6518V79.1153H21.9194Z" fill="#484848"/>
<path d="M28.5561 79.2303C27.9664 79.2303 27.4572 79.1076 27.0283 78.8621C26.602 78.6141 26.274 78.2638 26.0442 77.8112C25.8145 77.356 25.6996 76.8203 25.6996 76.2041C25.6996 75.5981 25.8145 75.0662 26.0442 74.6085C26.2765 74.1483 26.6007 73.7903 27.0168 73.5346C27.4329 73.2763 27.9218 73.1472 28.4834 73.1472C28.8458 73.1472 29.1879 73.206 29.5095 73.3236C29.8337 73.4387 30.1196 73.6177 30.3673 73.8606C30.6174 74.1035 30.814 74.4129 30.9569 74.7888C31.0999 75.1621 31.1714 75.607 31.1714 76.1236V76.5493H26.3506V75.6134H29.8427C29.8401 75.3475 29.7827 75.111 29.6704 74.9039C29.558 74.6942 29.4011 74.5293 29.1994 74.4091C29.0003 74.2889 28.768 74.2288 28.5025 74.2288C28.2192 74.2288 27.9703 74.2978 27.7558 74.4359C27.5414 74.5714 27.3742 74.7504 27.2542 74.9729C27.1368 75.1928 27.0768 75.4344 27.0743 75.6978V76.5148C27.0743 76.8574 27.1368 77.1515 27.2619 77.397C27.387 77.6399 27.5618 77.8265 27.7865 77.9569C28.0111 78.0848 28.274 78.1487 28.5753 78.1487C28.7769 78.1487 28.9594 78.1206 29.1228 78.0643C29.2862 78.0055 29.4279 77.9199 29.5478 77.8074C29.6678 77.6948 29.7584 77.5555 29.8197 77.3893L31.1139 77.535C31.0322 77.8777 30.8765 78.1768 30.6468 78.4325C30.4196 78.6857 30.1286 78.8826 29.7737 79.0232C29.4189 79.1613 29.013 79.2303 28.5561 79.2303Z" fill="#484848"/>
<path d="M36.9925 74.7811L35.7289 74.9192C35.6931 74.7914 35.6306 74.6712 35.5413 74.5587C35.4545 74.4462 35.337 74.3554 35.189 74.2863C35.0409 74.2173 34.8597 74.1828 34.6453 74.1828C34.3568 74.1828 34.1143 74.2454 33.9177 74.3707C33.7237 74.496 33.628 74.6584 33.6306 74.8578C33.628 75.0292 33.6905 75.1685 33.8182 75.2759C33.9484 75.3833 34.1628 75.4715 34.4615 75.5406L35.4647 75.7554C36.0212 75.8755 36.4347 76.066 36.7053 76.3268C36.9784 76.5877 37.1163 76.929 37.1188 77.3509C37.1163 77.7217 37.0078 78.049 36.7934 78.3328C36.5815 78.6141 36.2866 78.834 35.9088 78.9925C35.531 79.1511 35.0971 79.2303 34.607 79.2303C33.8871 79.2303 33.3076 79.0795 32.8686 78.7777C32.4295 78.4735 32.1679 78.0503 32.0836 77.5082L33.4353 77.3778C33.4965 77.6437 33.6267 77.8444 33.8258 77.98C34.025 78.1155 34.2841 78.1832 34.6031 78.1832C34.9324 78.1832 35.1966 78.1155 35.3958 77.98C35.5974 77.8444 35.6982 77.6769 35.6982 77.4775C35.6982 77.3087 35.6332 77.1694 35.503 77.0594C35.3753 76.9495 35.1762 76.8651 34.9056 76.8063L33.9024 76.5953C33.3383 76.4777 32.9209 76.2795 32.6503 76.0008C32.3797 75.7196 32.2457 75.3641 32.2483 74.9345C32.2457 74.5715 32.344 74.2569 32.5431 73.991C32.7448 73.7225 33.0243 73.5154 33.3817 73.3697C33.7416 73.2213 34.1564 73.1472 34.6261 73.1472C35.3153 73.1472 35.8578 73.2942 36.2535 73.5883C36.6517 73.8823 36.898 74.28 36.9925 74.7811Z" fill="#484848"/>
<path d="M42.9103 74.7811L41.6467 74.9192C41.6109 74.7914 41.5484 74.6712 41.4591 74.5587C41.3723 74.4462 41.2548 74.3554 41.1068 74.2863C40.9587 74.2173 40.7775 74.1828 40.5631 74.1828C40.2746 74.1828 40.0321 74.2454 39.8355 74.3707C39.6415 74.496 39.5458 74.6584 39.5484 74.8578C39.5458 75.0292 39.6083 75.1685 39.736 75.2759C39.8662 75.3833 40.0806 75.4715 40.3793 75.5406L41.3825 75.7554C41.939 75.8755 42.3525 76.066 42.6231 76.3268C42.8962 76.5877 43.0341 76.929 43.0366 77.3509C43.0341 77.7217 42.9256 78.049 42.7112 78.3328C42.4993 78.6141 42.2044 78.834 41.8266 78.9925C41.4488 79.1511 41.0149 79.2303 40.5248 79.2303C39.8049 79.2303 39.2254 79.0795 38.7864 78.7777C38.3473 78.4735 38.0857 78.0503 38.0014 77.5082L39.3531 77.3778C39.4143 77.6437 39.5445 77.8444 39.7436 77.98C39.9428 78.1155 40.2019 78.1832 40.5209 78.1832C40.8502 78.1832 41.1144 78.1155 41.3136 77.98C41.5152 77.8444 41.616 77.6769 41.616 77.4775C41.616 77.3087 41.551 77.1694 41.4208 77.0594C41.2931 76.9495 41.094 76.8651 40.8234 76.8063L39.8202 76.5953C39.2561 76.4777 38.8387 76.2795 38.5681 76.0008C38.2975 75.7196 38.1635 75.3641 38.1661 74.9345C38.1635 74.5715 38.2618 74.2569 38.4609 73.991C38.6626 73.7225 38.9421 73.5154 39.2995 73.3697C39.6594 73.2213 40.0742 73.1472 40.5439 73.1472C41.2331 73.1472 41.7756 73.2942 42.1713 73.5883C42.5695 73.8823 42.8158 74.28 42.9103 74.7811Z" fill="#484848"/>
<path d="M45.9295 75.6786L46.0175 74.1252L44.7157 74.9806L44.2485 74.1674L45.6385 73.4694L44.2485 72.7713L44.7157 71.9582L46.0175 72.8135L45.9295 71.2601H46.8599L46.7757 72.8135L48.0776 71.9582L48.5447 72.7713L47.1509 73.4694L48.5447 74.1674L48.0776 74.9806L46.7757 74.1252L46.8599 75.6786H45.9295Z" fill="#484848"/>
<path d="M140.37 158.771V149.934H143.678C144.356 149.934 144.925 150.061 145.384 150.314C145.847 150.567 146.196 150.915 146.431 151.358C146.669 151.798 146.789 152.299 146.789 152.86C146.789 153.427 146.669 153.93 146.431 154.37C146.193 154.81 145.841 155.157 145.376 155.41C144.91 155.66 144.338 155.785 143.657 155.785H141.464V154.469H143.442C143.838 154.469 144.162 154.4 144.415 154.262C144.668 154.124 144.854 153.934 144.975 153.693C145.099 153.451 145.16 153.173 145.16 152.86C145.16 152.546 145.099 152.27 144.975 152.031C144.854 151.793 144.666 151.607 144.411 151.475C144.158 151.34 143.832 151.272 143.433 151.272H141.968V158.771H140.37Z" fill="#3C3B3B"/>
<path d="M150.899 158.901C150.253 158.901 149.693 158.758 149.219 158.474C148.745 158.189 148.378 157.79 148.116 157.278C147.858 156.766 147.729 156.168 147.729 155.483C147.729 154.799 147.858 154.199 148.116 153.684C148.378 153.169 148.745 152.769 149.219 152.485C149.693 152.2 150.253 152.057 150.899 152.057C151.545 152.057 152.105 152.2 152.579 152.485C153.053 152.769 153.419 153.169 153.678 153.684C153.939 154.199 154.07 154.799 154.07 155.483C154.07 156.168 153.939 156.766 153.678 157.278C153.419 157.79 153.053 158.189 152.579 158.474C152.105 158.758 151.545 158.901 150.899 158.901ZM150.908 157.65C151.258 157.65 151.551 157.553 151.787 157.36C152.022 157.165 152.197 156.903 152.312 156.575C152.43 156.247 152.489 155.882 152.489 155.479C152.489 155.073 152.43 154.707 152.312 154.379C152.197 154.048 152.022 153.785 151.787 153.589C151.551 153.394 151.258 153.296 150.908 153.296C150.549 153.296 150.25 153.394 150.012 153.589C149.776 153.785 149.6 154.048 149.482 154.379C149.367 154.707 149.31 155.073 149.31 155.479C149.31 155.882 149.367 156.247 149.482 156.575C149.6 156.903 149.776 157.165 150.012 157.36C150.25 157.553 150.549 157.65 150.908 157.65Z" fill="#3C3B3B"/>
<path d="M160.623 153.896L159.201 154.051C159.161 153.907 159.091 153.772 158.99 153.645C158.892 153.519 158.76 153.417 158.594 153.339C158.427 153.261 158.223 153.222 157.982 153.222C157.658 153.222 157.385 153.293 157.164 153.434C156.945 153.575 156.838 153.757 156.841 153.982C156.838 154.175 156.908 154.331 157.052 154.452C157.198 154.573 157.439 154.672 157.775 154.75L158.904 154.992C159.53 155.127 159.995 155.341 160.3 155.634C160.607 155.928 160.762 156.312 160.765 156.787C160.762 157.204 160.64 157.572 160.399 157.891C160.16 158.208 159.829 158.455 159.404 158.633C158.979 158.812 158.49 158.901 157.939 158.901C157.129 158.901 156.477 158.731 155.983 158.392C155.489 158.049 155.195 157.573 155.1 156.963L156.621 156.817C156.69 157.116 156.836 157.342 157.06 157.494C157.284 157.647 157.576 157.723 157.935 157.723C158.305 157.723 158.602 157.647 158.826 157.494C159.053 157.342 159.167 157.153 159.167 156.929C159.167 156.739 159.093 156.582 158.947 156.459C158.803 156.335 158.579 156.24 158.275 156.174L157.146 155.936C156.512 155.804 156.042 155.581 155.738 155.268C155.433 154.951 155.283 154.551 155.286 154.068C155.283 153.66 155.393 153.306 155.617 153.007C155.844 152.705 156.159 152.472 156.561 152.308C156.965 152.141 157.432 152.057 157.961 152.057C158.736 152.057 159.346 152.223 159.791 152.554C160.239 152.884 160.516 153.332 160.623 153.896Z" fill="#3C3B3B"/>
<path d="M165.355 152.144V153.352H161.551V152.144H165.355ZM162.49 150.556H164.049V156.778C164.049 156.988 164.081 157.149 164.144 157.261C164.21 157.371 164.296 157.445 164.403 157.486C164.509 157.526 164.627 157.546 164.756 157.546C164.854 157.546 164.943 157.539 165.023 157.524C165.106 157.51 165.169 157.497 165.213 157.486L165.475 158.707C165.392 158.735 165.273 158.767 165.118 158.802C164.966 158.836 164.779 158.856 164.558 158.862C164.167 158.874 163.815 158.815 163.502 158.685C163.189 158.553 162.941 158.349 162.757 158.072C162.576 157.796 162.487 157.451 162.49 157.037V150.556Z" fill="#3C3B3B"/>
<path d="M168.563 158.905C168.144 158.905 167.766 158.83 167.43 158.681C167.097 158.528 166.833 158.304 166.637 158.008C166.445 157.711 166.349 157.346 166.349 156.912C166.349 156.538 166.418 156.228 166.555 155.984C166.693 155.739 166.881 155.544 167.12 155.397C167.358 155.25 167.627 155.14 167.925 155.065C168.227 154.987 168.538 154.931 168.86 154.897C169.248 154.856 169.562 154.82 169.803 154.789C170.045 154.754 170.22 154.702 170.329 154.633C170.441 154.561 170.497 154.451 170.497 154.301V154.275C170.497 153.95 170.401 153.698 170.208 153.52C170.016 153.342 169.739 153.253 169.377 153.253C168.995 153.253 168.692 153.336 168.468 153.503C168.247 153.67 168.098 153.867 168.02 154.094L166.564 153.887C166.679 153.484 166.869 153.148 167.133 152.877C167.397 152.604 167.72 152.4 168.102 152.264C168.484 152.126 168.906 152.057 169.368 152.057C169.687 152.057 170.005 152.095 170.32 152.17C170.636 152.244 170.925 152.368 171.186 152.541C171.448 152.71 171.657 152.942 171.815 153.235C171.976 153.529 172.056 153.896 172.056 154.336V158.771H170.557V157.861H170.506C170.411 158.045 170.277 158.218 170.105 158.379C169.936 158.537 169.722 158.665 169.463 158.763C169.208 158.858 168.907 158.905 168.563 158.905ZM168.968 157.757C169.281 157.757 169.552 157.696 169.782 157.572C170.012 157.445 170.188 157.278 170.312 157.071C170.438 156.864 170.501 156.638 170.501 156.394V155.613C170.453 155.653 170.369 155.691 170.251 155.725C170.137 155.76 170.007 155.79 169.864 155.816C169.72 155.842 169.578 155.865 169.437 155.885C169.297 155.905 169.175 155.922 169.071 155.936C168.839 155.968 168.63 156.02 168.447 156.092C168.263 156.164 168.118 156.264 168.011 156.394C167.905 156.52 167.852 156.684 167.852 156.886C167.852 157.173 167.957 157.391 168.167 157.537C168.376 157.684 168.643 157.757 168.968 157.757Z" fill="#3C3B3B"/>
<path d="M175.184 149.934V158.771H173.624V149.934H175.184Z" fill="#3C3B3B"/>
<path d="M187.417 152.916H185.805C185.76 152.651 185.675 152.417 185.551 152.213C185.428 152.006 185.274 151.83 185.09 151.686C184.907 151.542 184.697 151.435 184.461 151.363C184.229 151.288 183.978 151.25 183.708 151.25C183.228 151.25 182.803 151.371 182.433 151.613C182.062 151.852 181.772 152.203 181.562 152.666C181.353 153.126 181.248 153.688 181.248 154.353C181.248 155.029 181.353 155.598 181.562 156.062C181.775 156.522 182.065 156.87 182.433 157.106C182.803 157.339 183.227 157.455 183.703 157.455C183.968 157.455 184.214 157.421 184.444 157.352C184.677 157.28 184.885 157.175 185.069 157.037C185.255 156.899 185.412 156.729 185.538 156.528C185.668 156.326 185.757 156.096 185.805 155.837L187.417 155.846C187.356 156.266 187.226 156.66 187.025 157.028C186.826 157.396 186.566 157.721 186.245 158.003C185.923 158.282 185.547 158.501 185.116 158.659C184.685 158.815 184.207 158.892 183.682 158.892C182.906 158.892 182.214 158.712 181.605 158.353C180.997 157.993 180.517 157.474 180.167 156.795C179.816 156.116 179.641 155.302 179.641 154.353C179.641 153.401 179.818 152.587 180.171 151.911C180.524 151.232 181.005 150.713 181.614 150.353C182.223 149.993 182.912 149.814 183.682 149.814C184.173 149.814 184.629 149.883 185.052 150.021C185.474 150.159 185.85 150.362 186.18 150.629C186.51 150.894 186.782 151.219 186.994 151.604C187.21 151.987 187.35 152.424 187.417 152.916Z" fill="#3C3B3B"/>
<path d="M191.697 158.901C191.051 158.901 190.491 158.758 190.017 158.474C189.543 158.189 189.176 157.79 188.915 157.278C188.656 156.766 188.527 156.168 188.527 155.483C188.527 154.799 188.656 154.199 188.915 153.684C189.176 153.169 189.543 152.769 190.017 152.485C190.491 152.2 191.051 152.057 191.697 152.057C192.343 152.057 192.903 152.2 193.377 152.485C193.851 152.769 194.217 153.169 194.476 153.684C194.737 154.199 194.868 154.799 194.868 155.483C194.868 156.168 194.737 156.766 194.476 157.278C194.217 157.79 193.851 158.189 193.377 158.474C192.903 158.758 192.343 158.901 191.697 158.901ZM191.706 157.65C192.056 157.65 192.349 157.553 192.585 157.36C192.82 157.165 192.995 156.903 193.11 156.575C193.228 156.247 193.287 155.882 193.287 155.479C193.287 155.073 193.228 154.707 193.11 154.379C192.995 154.048 192.82 153.785 192.585 153.589C192.349 153.394 192.056 153.296 191.706 153.296C191.347 153.296 191.048 153.394 190.81 153.589C190.574 153.785 190.398 154.048 190.28 154.379C190.165 154.707 190.108 155.073 190.108 155.479C190.108 155.882 190.165 156.247 190.28 156.575C190.398 156.903 190.574 157.165 190.81 157.36C191.048 157.553 191.347 157.65 191.706 157.65Z" fill="#3C3B3B"/>
<path d="M198.647 158.888C198.127 158.888 197.662 158.754 197.251 158.487C196.84 158.219 196.516 157.831 196.277 157.322C196.039 156.812 195.92 156.194 195.92 155.466C195.92 154.73 196.04 154.108 196.282 153.602C196.526 153.093 196.855 152.709 197.268 152.45C197.682 152.188 198.143 152.057 198.651 152.057C199.039 152.057 199.357 152.124 199.607 152.256C199.857 152.385 200.055 152.542 200.202 152.726C200.348 152.907 200.462 153.079 200.542 153.24H200.607V149.934H202.17V158.771H200.637V157.727H200.542C200.462 157.888 200.345 158.059 200.193 158.241C200.041 158.419 199.84 158.571 199.59 158.698C199.34 158.825 199.026 158.888 198.647 158.888ZM199.082 157.606C199.412 157.606 199.693 157.517 199.926 157.339C200.159 157.158 200.335 156.906 200.456 156.584C200.576 156.262 200.637 155.886 200.637 155.458C200.637 155.029 200.576 154.656 200.456 154.34C200.338 154.024 200.163 153.778 199.93 153.602C199.701 153.427 199.418 153.339 199.082 153.339C198.734 153.339 198.444 153.43 198.212 153.611C197.979 153.792 197.804 154.042 197.686 154.362C197.568 154.681 197.509 155.046 197.509 155.458C197.509 155.872 197.568 156.241 197.686 156.566C197.807 156.889 197.983 157.143 198.216 157.33C198.451 157.514 198.74 157.606 199.082 157.606Z" fill="#3C3B3B"/>
<path d="M206.761 158.901C206.098 158.901 205.525 158.763 205.042 158.487C204.563 158.208 204.194 157.814 203.935 157.304C203.677 156.792 203.548 156.19 203.548 155.496C203.548 154.815 203.677 154.216 203.935 153.701C204.197 153.184 204.561 152.781 205.03 152.493C205.498 152.203 206.048 152.057 206.679 152.057C207.087 152.057 207.472 152.124 207.834 152.256C208.199 152.385 208.52 152.587 208.799 152.86C209.08 153.133 209.301 153.481 209.462 153.904C209.623 154.324 209.703 154.825 209.703 155.406V155.885H204.28V154.832H208.209C208.206 154.533 208.141 154.267 208.015 154.034C207.888 153.798 207.712 153.612 207.485 153.477C207.261 153.342 207 153.274 206.701 153.274C206.382 153.274 206.102 153.352 205.861 153.507C205.62 153.66 205.432 153.861 205.297 154.111C205.165 154.359 205.097 154.63 205.094 154.927V155.846C205.094 156.231 205.165 156.562 205.305 156.838C205.446 157.112 205.643 157.322 205.895 157.468C206.148 157.612 206.444 157.684 206.783 157.684C207.01 157.684 207.215 157.652 207.399 157.589C207.583 157.523 207.742 157.427 207.877 157.3C208.012 157.173 208.114 157.017 208.183 156.83L209.639 156.994C209.547 157.379 209.372 157.716 209.113 158.003C208.858 158.288 208.53 158.51 208.131 158.668C207.732 158.823 207.275 158.901 206.761 158.901Z" fill="#3C3B3B"/>
<path d="M212.991 154.905L213.09 153.158L211.626 154.12L211.1 153.205L212.664 152.42L211.1 151.634L211.626 150.72L213.09 151.682L212.991 149.934H214.038L213.943 151.682L215.408 150.72L215.933 151.634L214.365 152.42L215.933 153.205L215.408 154.12L213.943 153.158L214.038 154.905H212.991Z" fill="#3C3B3B"/>
<path d="M9.09543 152.916H7.48436C7.43841 152.651 7.35369 152.417 7.23021 152.213C7.10672 152.006 6.95308 151.83 6.76928 151.686C6.58549 151.542 6.37585 151.435 6.14036 151.363C5.90775 151.288 5.65647 151.25 5.38652 151.25C4.90693 151.25 4.4819 151.371 4.11144 151.613C3.74098 151.852 3.45093 152.203 3.24129 152.666C3.03165 153.126 2.92683 153.688 2.92683 154.353C2.92683 155.029 3.03165 155.598 3.24129 156.062C3.4538 156.522 3.74386 156.87 4.11144 157.106C4.4819 157.339 4.90549 157.455 5.38221 157.455C5.64642 157.455 5.89339 157.421 6.12313 157.352C6.35575 157.28 6.56395 157.175 6.74775 157.037C6.93441 156.899 7.09093 156.729 7.21728 156.528C7.34651 156.326 7.43554 156.096 7.48436 155.837L9.09543 155.846C9.03513 156.266 8.90446 156.66 8.70343 157.028C8.50528 157.396 8.24538 157.721 7.92374 158.003C7.6021 158.282 7.2259 158.501 6.79513 158.659C6.36436 158.815 5.88621 158.892 5.36067 158.892C4.58529 158.892 3.89319 158.712 3.28437 158.353C2.67555 157.993 2.19596 157.474 1.8456 156.795C1.49524 156.116 1.32007 155.302 1.32007 154.353C1.32007 153.401 1.49668 152.587 1.84991 151.911C2.20314 151.232 2.68416 150.713 3.29298 150.353C3.9018 149.993 4.59103 149.814 5.36067 149.814C5.85175 149.814 6.30836 149.883 6.73052 150.021C7.15267 150.159 7.52887 150.362 7.85913 150.629C8.18938 150.894 8.46077 151.219 8.67328 151.604C8.88866 151.987 9.02938 152.424 9.09543 152.916Z" fill="#444444"/>
<path d="M10.49 158.771V152.144H12.0494V158.771H10.49ZM11.274 151.203C11.0271 151.203 10.8146 151.121 10.6365 150.957C10.4585 150.79 10.3694 150.59 10.3694 150.357C10.3694 150.121 10.4585 149.921 10.6365 149.757C10.8146 149.591 11.0271 149.507 11.274 149.507C11.5239 149.507 11.7364 149.591 11.9116 149.757C12.0896 149.921 12.1787 150.121 12.1787 150.357C12.1787 150.59 12.0896 150.79 11.9116 150.957C11.7364 151.121 11.5239 151.203 11.274 151.203Z" fill="#444444"/>
<path d="M16.957 152.144V153.352H13.1533V152.144H16.957ZM14.0923 150.556H15.6517V156.778C15.6517 156.988 15.6833 157.149 15.7465 157.261C15.8125 157.371 15.8987 157.445 16.005 157.486C16.1112 157.526 16.229 157.546 16.3582 157.546C16.4558 157.546 16.5449 157.539 16.6253 157.524C16.7085 157.51 16.7717 157.497 16.8148 157.486L17.0776 158.707C16.9943 158.735 16.8751 158.767 16.72 158.802C16.5678 158.836 16.3812 158.856 16.16 158.862C15.7695 158.874 15.4177 158.815 15.1047 158.685C14.7916 158.553 14.5432 158.349 14.3594 158.072C14.1785 157.796 14.0895 157.451 14.0923 157.037V150.556Z" fill="#444444"/>
<path d="M19.2303 161.257C19.0178 161.257 18.8211 161.24 18.6402 161.205C18.4621 161.173 18.32 161.136 18.2137 161.093L18.5756 159.876C18.8024 159.942 19.0049 159.974 19.1829 159.971C19.361 159.968 19.5175 159.912 19.6525 159.803C19.7903 159.696 19.9066 159.518 20.0014 159.268L20.1349 158.91L17.7356 152.144H19.3897L20.9146 157.149H20.9836L22.5128 152.144H24.1712L21.522 159.574C21.3985 159.925 21.2348 160.226 21.0309 160.476C20.827 160.729 20.5772 160.922 20.2814 161.054C19.9885 161.189 19.6381 161.257 19.2303 161.257Z" fill="#444444"/>
<path d="M27.2189 154.905L27.318 153.158L25.8534 154.12L25.3279 153.205L26.8915 152.42L25.3279 151.634L25.8534 150.72L27.318 151.682L27.2189 149.934H28.2657L28.1709 151.682L29.6355 150.72L30.1611 151.634L28.5931 152.42L30.1611 153.205L29.6355 154.12L28.1709 153.158L28.2657 154.905H27.2189Z" fill="#444444"/>
<path d="M0 94.6415C0 91.6589 2.41377 89.2411 5.3913 89.2411H304.609C307.586 89.2411 310 91.6589 310 94.6415V119.618C310 122.601 307.586 125.019 304.609 125.019H5.39131C2.41378 125.019 0 122.601 0 119.618V94.6415Z" fill="#E9E9E9"/>
<path d="M136.804 173.623C136.804 170.64 139.218 168.222 142.196 168.222H279.674C282.651 168.222 285.065 170.64 285.065 173.623V197.925C285.065 200.907 282.651 203.325 279.674 203.325H142.196C139.218 203.325 136.804 200.907 136.804 197.925V173.623Z" fill="#E9E9E9"/>
<path d="M0 173.623C0 170.64 2.41377 168.222 5.3913 168.222H104.457C107.434 168.222 109.848 170.64 109.848 173.623V198.6C109.848 201.582 107.434 204 104.457 204H5.39131C2.41377 204 0 201.582 0 198.6V173.623Z" fill="#E9E9E9"/>
<path d="M0 25.1112C0 22.1286 2.41377 19.7108 5.3913 19.7108H55.2609C58.2384 19.7108 60.6522 22.1286 60.6522 25.1112V41.3124C60.6522 44.295 58.2384 46.7128 55.2609 46.7128H5.3913C2.41377 46.7128 0 44.295 0 41.3124V25.1112Z" fill="white"/>
<path fill-rule="evenodd" clip-rule="evenodd" d="M55.2609 21.0609H5.3913C3.15815 21.0609 1.34783 22.8743 1.34783 25.1112V41.3124C1.34783 43.5493 3.15815 45.3627 5.3913 45.3627H55.2609C57.494 45.3627 59.3043 43.5493 59.3043 41.3124V25.1112C59.3043 22.8743 57.494 21.0609 55.2609 21.0609ZM5.3913 19.7108C2.41377 19.7108 0 22.1286 0 25.1112V41.3124C0 44.295 2.41377 46.7128 5.3913 46.7128H55.2609C58.2384 46.7128 60.6522 44.295 60.6522 41.3124V25.1112C60.6522 22.1286 58.2384 19.7108 55.2609 19.7108H5.3913Z" fill="#696969"/>
<path d="M74.1304 25.1112C74.1304 22.1286 76.5442 19.7108 79.5217 19.7108H129.391C132.369 19.7108 134.783 22.1286 134.783 25.1112V41.3124C134.783 44.295 132.369 46.7128 129.391 46.7128H79.5217C76.5442 46.7128 74.1304 44.295 74.1304 41.3124V25.1112Z" fill="#3745B6"/>
<path d="M148.556 189.824V180.987H154.087V182.135H149.887V184.827H153.799V185.971H149.887V188.676H154.139V189.824H148.556Z" fill="#696969"/>
<path d="M157.05 185.889V189.824H155.762V183.196H156.998V184.275H157.08C157.232 183.924 157.471 183.642 157.795 183.429C158.122 183.216 158.535 183.11 159.031 183.11C159.482 183.11 159.877 183.205 160.216 183.395C160.555 183.582 160.818 183.861 161.004 184.232C161.191 184.603 161.284 185.062 161.284 185.608V189.824H159.996V185.764C159.996 185.283 159.871 184.908 159.622 184.637C159.372 184.364 159.029 184.227 158.592 184.227C158.293 184.227 158.028 184.292 157.795 184.422C157.565 184.551 157.383 184.741 157.248 184.991C157.116 185.239 157.05 185.538 157.05 185.889Z" fill="#696969"/>
<path d="M166.1 183.196V184.232H162.486V183.196H166.1ZM163.455 181.608H164.743V187.878C164.743 188.128 164.781 188.317 164.855 188.443C164.93 188.567 165.026 188.652 165.144 188.698C165.265 188.741 165.395 188.762 165.536 188.762C165.639 188.762 165.73 188.755 165.807 188.741C165.885 188.726 165.945 188.715 165.988 188.706L166.221 189.772C166.146 189.801 166.04 189.83 165.902 189.858C165.764 189.89 165.592 189.907 165.385 189.91C165.046 189.916 164.73 189.856 164.438 189.729C164.145 189.602 163.908 189.407 163.727 189.142C163.546 188.877 163.455 188.545 163.455 188.145V181.608Z" fill="#696969"/>
<path d="M170.306 189.958C169.654 189.958 169.092 189.818 168.621 189.539C168.153 189.257 167.791 188.862 167.536 188.352C167.283 187.84 167.157 187.241 167.157 186.553C167.157 185.874 167.283 185.276 167.536 184.758C167.791 184.24 168.148 183.836 168.604 183.546C169.064 183.255 169.601 183.11 170.215 183.11C170.589 183.11 170.95 183.172 171.301 183.295C171.651 183.419 171.966 183.613 172.244 183.878C172.523 184.143 172.742 184.486 172.903 184.909C173.064 185.329 173.144 185.84 173.144 186.441V186.898H167.885V185.932H171.882C171.882 185.592 171.813 185.292 171.676 185.03C171.538 184.765 171.344 184.557 171.094 184.404C170.847 184.252 170.557 184.176 170.224 184.176C169.862 184.176 169.546 184.265 169.276 184.443C169.009 184.619 168.802 184.849 168.656 185.134C168.512 185.415 168.44 185.722 168.44 186.053V186.808C168.44 187.251 168.518 187.628 168.673 187.938C168.831 188.249 169.051 188.486 169.332 188.65C169.614 188.811 169.942 188.892 170.319 188.892C170.563 188.892 170.785 188.857 170.986 188.788C171.187 188.716 171.361 188.61 171.508 188.469C171.654 188.328 171.766 188.154 171.844 187.947L173.063 188.167C172.965 188.527 172.79 188.842 172.537 189.112C172.287 189.379 171.973 189.588 171.594 189.738C171.217 189.884 170.788 189.958 170.306 189.958Z" fill="#696969"/>
<path d="M174.574 189.824V183.196H175.818V184.249H175.887C176.008 183.892 176.22 183.612 176.525 183.408C176.832 183.2 177.18 183.097 177.567 183.097C177.648 183.097 177.743 183.1 177.852 183.106C177.964 183.111 178.051 183.118 178.114 183.127V184.361C178.063 184.347 177.971 184.331 177.839 184.314C177.707 184.294 177.575 184.283 177.442 184.283C177.138 184.283 176.867 184.348 176.628 184.478C176.393 184.604 176.206 184.781 176.068 185.008C175.93 185.233 175.862 185.489 175.862 185.776V189.824H174.574Z" fill="#696969"/>
<path d="M182.543 189.824V180.987H185.687C186.374 180.987 186.942 181.112 187.393 181.362C187.844 181.613 188.181 181.955 188.405 182.389C188.629 182.821 188.741 183.307 188.741 183.848C188.741 184.391 188.628 184.88 188.401 185.315C188.177 185.746 187.838 186.089 187.385 186.342C186.934 186.592 186.367 186.717 185.683 186.717H183.521V185.587H185.562C185.996 185.587 186.348 185.512 186.618 185.362C186.888 185.21 187.086 185.003 187.212 184.741C187.339 184.479 187.402 184.181 187.402 183.848C187.402 183.514 187.339 183.218 187.212 182.959C187.086 182.7 186.886 182.497 186.613 182.35C186.344 182.204 185.987 182.13 185.545 182.13H183.874V189.824H182.543Z" fill="#696969"/>
<path d="M192.903 189.958C192.282 189.958 191.741 189.815 191.279 189.53C190.816 189.246 190.457 188.847 190.202 188.335C189.946 187.823 189.818 187.225 189.818 186.54C189.818 185.853 189.946 185.251 190.202 184.737C190.457 184.222 190.816 183.822 191.279 183.537C191.741 183.252 192.282 183.11 192.903 183.11C193.523 183.11 194.064 183.252 194.527 183.537C194.989 183.822 195.348 184.222 195.604 184.737C195.859 185.251 195.987 185.853 195.987 186.54C195.987 187.225 195.859 187.823 195.604 188.335C195.348 188.847 194.989 189.246 194.527 189.53C194.064 189.815 193.523 189.958 192.903 189.958ZM192.907 188.875C193.309 188.875 193.642 188.768 193.906 188.555C194.171 188.342 194.366 188.059 194.492 187.705C194.621 187.351 194.686 186.962 194.686 186.536C194.686 186.113 194.621 185.725 194.492 185.371C194.366 185.014 194.171 184.728 193.906 184.512C193.642 184.296 193.309 184.189 192.907 184.189C192.502 184.189 192.166 184.296 191.899 184.512C191.635 184.728 191.438 185.014 191.309 185.371C191.183 185.725 191.119 186.113 191.119 186.536C191.119 186.962 191.183 187.351 191.309 187.705C191.438 188.059 191.635 188.342 191.899 188.555C192.166 188.768 192.502 188.875 192.907 188.875Z" fill="#696969"/>
<path d="M202.383 184.814L201.215 185.021C201.167 184.872 201.089 184.729 200.983 184.594C200.879 184.459 200.739 184.348 200.561 184.262C200.383 184.176 200.16 184.132 199.893 184.132C199.528 184.132 199.224 184.214 198.98 184.378C198.736 184.54 198.614 184.748 198.614 185.004C198.614 185.226 198.695 185.404 198.859 185.539C199.023 185.674 199.287 185.785 199.652 185.871L200.703 186.113C201.312 186.254 201.765 186.471 202.064 186.765C202.363 187.058 202.512 187.439 202.512 187.908C202.512 188.305 202.397 188.659 202.167 188.97C201.941 189.277 201.623 189.519 201.215 189.694C200.811 189.87 200.341 189.958 199.807 189.958C199.066 189.958 198.461 189.799 197.993 189.483C197.525 189.164 197.238 188.711 197.132 188.124L198.377 187.934C198.454 188.259 198.614 188.505 198.855 188.672C199.096 188.836 199.411 188.918 199.798 188.918C200.22 188.918 200.558 188.83 200.811 188.655C201.063 188.476 201.19 188.259 201.19 188.003C201.19 187.796 201.112 187.622 200.957 187.481C200.805 187.34 200.571 187.233 200.255 187.162L199.135 186.916C198.517 186.775 198.061 186.55 197.765 186.242C197.472 185.935 197.326 185.545 197.326 185.073C197.326 184.682 197.435 184.34 197.653 184.046C197.871 183.753 198.173 183.524 198.558 183.36C198.942 183.193 199.383 183.11 199.88 183.11C200.595 183.11 201.158 183.265 201.569 183.576C201.979 183.884 202.251 184.296 202.383 184.814Z" fill="#696969"/>
<path d="M207.017 183.196V184.232H203.403V183.196H207.017ZM204.372 181.608H205.66V187.878C205.66 188.128 205.697 188.317 205.772 188.443C205.847 188.567 205.943 188.652 206.061 188.698C206.181 188.741 206.312 188.762 206.453 188.762C206.556 188.762 206.646 188.755 206.724 188.741C206.801 188.726 206.862 188.715 206.905 188.706L207.137 189.772C207.063 189.801 206.957 189.83 206.819 189.858C206.681 189.89 206.509 189.907 206.302 189.91C205.963 189.916 205.647 189.856 205.354 189.729C205.061 189.602 204.824 189.407 204.643 189.142C204.462 188.877 204.372 188.545 204.372 188.145V181.608Z" fill="#696969"/>
<path d="M210.367 189.971C209.948 189.971 209.569 189.893 209.23 189.738C208.891 189.579 208.623 189.351 208.424 189.052C208.229 188.752 208.131 188.386 208.131 187.951C208.131 187.577 208.203 187.269 208.347 187.028C208.49 186.786 208.684 186.595 208.928 186.454C209.172 186.313 209.445 186.207 209.747 186.135C210.048 186.063 210.356 186.008 210.669 185.971C211.065 185.925 211.387 185.887 211.634 185.858C211.881 185.827 212.06 185.776 212.172 185.707C212.284 185.638 212.34 185.526 212.34 185.371V185.341C212.34 184.964 212.234 184.672 212.021 184.465C211.812 184.258 211.499 184.154 211.082 184.154C210.649 184.154 210.307 184.25 210.057 184.443C209.81 184.633 209.639 184.844 209.544 185.077L208.334 184.801C208.477 184.399 208.687 184.074 208.963 183.826C209.241 183.576 209.562 183.395 209.923 183.282C210.285 183.167 210.666 183.11 211.065 183.11C211.329 183.11 211.609 183.141 211.905 183.205C212.204 183.265 212.482 183.377 212.741 183.541C213.002 183.705 213.216 183.94 213.383 184.245C213.549 184.547 213.632 184.939 213.632 185.423V189.824H212.375V188.918H212.323C212.24 189.085 212.115 189.249 211.948 189.41C211.781 189.571 211.568 189.705 211.306 189.811C211.045 189.917 210.732 189.971 210.367 189.971ZM210.647 188.935C211.003 188.935 211.308 188.865 211.56 188.724C211.816 188.583 212.01 188.399 212.142 188.171C212.277 187.941 212.344 187.695 212.344 187.433V186.579C212.298 186.625 212.209 186.668 212.077 186.708C211.948 186.746 211.8 186.779 211.634 186.808C211.467 186.834 211.305 186.858 211.147 186.881C210.989 186.901 210.857 186.918 210.751 186.933C210.501 186.965 210.272 187.018 210.066 187.093C209.862 187.167 209.698 187.275 209.575 187.416C209.454 187.554 209.394 187.738 209.394 187.968C209.394 188.288 209.511 188.529 209.747 188.693C209.982 188.854 210.282 188.935 210.647 188.935Z" fill="#696969"/>
<path d="M216.636 180.987V189.824H215.348V180.987H216.636Z" fill="#696969"/>
<path d="M229.01 183.861H227.666C227.614 183.573 227.518 183.32 227.377 183.101C227.236 182.883 227.064 182.697 226.86 182.545C226.656 182.392 226.428 182.277 226.175 182.199C225.925 182.122 225.66 182.083 225.378 182.083C224.87 182.083 224.415 182.211 224.013 182.467C223.614 182.723 223.298 183.098 223.065 183.593C222.835 184.088 222.72 184.692 222.72 185.405C222.72 186.125 222.835 186.732 223.065 187.226C223.298 187.721 223.615 188.095 224.017 188.348C224.419 188.601 224.871 188.728 225.374 188.728C225.653 188.728 225.917 188.691 226.167 188.616C226.419 188.538 226.648 188.424 226.852 188.275C227.055 188.125 227.228 187.943 227.368 187.727C227.512 187.508 227.611 187.258 227.666 186.976L229.01 186.98C228.938 187.415 228.799 187.815 228.592 188.18C228.388 188.542 228.125 188.856 227.804 189.121C227.485 189.382 227.12 189.585 226.709 189.729C226.299 189.873 225.851 189.945 225.365 189.945C224.602 189.945 223.921 189.763 223.324 189.401C222.726 189.036 222.255 188.514 221.911 187.835C221.569 187.156 221.398 186.346 221.398 185.405C221.398 184.462 221.57 183.652 221.915 182.976C222.26 182.297 222.731 181.776 223.328 181.414C223.925 181.049 224.604 180.866 225.365 180.866C225.834 180.866 226.27 180.934 226.675 181.069C227.083 181.201 227.449 181.397 227.773 181.656C228.098 181.912 228.366 182.225 228.579 182.596C228.791 182.965 228.935 183.386 229.01 183.861Z" fill="#696969"/>
<path d="M233.286 189.958C232.666 189.958 232.125 189.815 231.662 189.53C231.2 189.246 230.841 188.847 230.585 188.335C230.33 187.823 230.202 187.225 230.202 186.54C230.202 185.853 230.33 185.251 230.585 184.737C230.841 184.222 231.2 183.822 231.662 183.537C232.125 183.252 232.666 183.11 233.286 183.11C233.906 183.11 234.448 183.252 234.91 183.537C235.373 183.822 235.731 184.222 235.987 184.737C236.243 185.251 236.37 185.853 236.37 186.54C236.37 187.225 236.243 187.823 235.987 188.335C235.731 188.847 235.373 189.246 234.91 189.53C234.448 189.815 233.906 189.958 233.286 189.958ZM233.29 188.875C233.693 188.875 234.026 188.768 234.29 188.555C234.554 188.342 234.749 188.059 234.876 187.705C235.005 187.351 235.07 186.962 235.07 186.536C235.07 186.113 235.005 185.725 234.876 185.371C234.749 185.014 234.554 184.728 234.29 184.512C234.026 184.296 233.693 184.189 233.29 184.189C232.886 184.189 232.55 184.296 232.282 184.512C232.018 184.728 231.822 185.014 231.692 185.371C231.566 185.725 231.503 186.113 231.503 186.536C231.503 186.962 231.566 187.351 231.692 187.705C231.822 188.059 232.018 188.342 232.282 188.555C232.55 188.768 232.886 188.875 233.29 188.875Z" fill="#696969"/>
<path d="M240.285 189.953C239.751 189.953 239.274 189.817 238.855 189.543C238.439 189.267 238.111 188.875 237.873 188.365C237.637 187.853 237.52 187.239 237.52 186.523C237.52 185.807 237.639 185.194 237.877 184.685C238.118 184.176 238.449 183.786 238.868 183.515C239.287 183.245 239.762 183.11 240.294 183.11C240.704 183.11 241.035 183.179 241.284 183.317C241.537 183.452 241.732 183.61 241.87 183.792C242.011 183.973 242.12 184.132 242.198 184.271H242.275V180.987H243.563V189.824H242.305V188.793H242.198C242.12 188.934 242.008 189.095 241.862 189.276C241.718 189.457 241.52 189.615 241.267 189.751C241.014 189.886 240.687 189.953 240.285 189.953ZM240.569 188.853C240.94 188.853 241.253 188.755 241.508 188.56C241.767 188.361 241.962 188.086 242.094 187.735C242.229 187.385 242.297 186.976 242.297 186.51C242.297 186.05 242.231 185.647 242.099 185.302C241.966 184.957 241.773 184.688 241.517 184.495C241.261 184.302 240.946 184.206 240.569 184.206C240.182 184.206 239.859 184.306 239.6 184.508C239.342 184.709 239.146 184.984 239.014 185.332C238.885 185.68 238.82 186.073 238.82 186.51C238.82 186.953 238.887 187.351 239.019 187.705C239.151 188.059 239.346 188.34 239.604 188.547C239.866 188.751 240.187 188.853 240.569 188.853Z" fill="#696969"/>
<path d="M248.253 189.958C247.601 189.958 247.04 189.818 246.569 189.539C246.101 189.257 245.739 188.862 245.483 188.352C245.231 187.84 245.104 187.241 245.104 186.553C245.104 185.874 245.231 185.276 245.483 184.758C245.739 184.24 246.095 183.836 246.552 183.546C247.011 183.255 247.548 183.11 248.163 183.11C248.536 183.11 248.898 183.172 249.248 183.295C249.599 183.419 249.913 183.613 250.192 183.878C250.47 184.143 250.69 184.486 250.851 184.909C251.012 185.329 251.092 185.84 251.092 186.441V186.898H245.832V185.932H249.83C249.83 185.592 249.761 185.292 249.623 185.03C249.485 184.765 249.291 184.557 249.041 184.404C248.795 184.252 248.504 184.176 248.171 184.176C247.81 184.176 247.494 184.265 247.224 184.443C246.957 184.619 246.75 184.849 246.603 185.134C246.46 185.415 246.388 185.722 246.388 186.053V186.808C246.388 187.251 246.466 187.628 246.621 187.938C246.779 188.249 246.998 188.486 247.28 188.65C247.561 188.811 247.89 188.892 248.266 188.892C248.51 188.892 248.733 188.857 248.934 188.788C249.135 188.716 249.309 188.61 249.455 188.469C249.602 188.328 249.714 188.154 249.791 187.947L251.01 188.167C250.912 188.527 250.737 188.842 250.485 189.112C250.235 189.379 249.92 189.588 249.541 189.738C249.165 189.884 248.736 189.958 248.253 189.958Z" fill="#696969"/>
<path d="M29.2675 28.4251V37.2621H27.6564L23.8183 31.7001H23.7536V37.2621H21.8884V28.4251H23.5253L27.3333 33.9827H27.4109V28.4251H29.2675Z" fill="#696969"/>
<path d="M38.9156 32.8436C38.9156 33.8073 38.7332 34.6271 38.3685 35.3031C38.0067 35.9791 37.5127 36.4955 36.8867 36.8522C36.2635 37.206 35.5628 37.3829 34.7845 37.3829C34.0005 37.3829 33.297 37.2046 32.6738 36.8479C32.0506 36.4912 31.5581 35.9748 31.1962 35.2988C30.8344 34.6228 30.6535 33.8044 30.6535 32.8436C30.6535 31.8799 30.8344 31.0601 31.1962 30.3841C31.5581 29.7081 32.0506 29.1931 32.6738 28.8393C33.297 28.4826 34.0005 28.3043 34.7845 28.3043C35.5628 28.3043 36.2635 28.4826 36.8867 28.8393C37.5127 29.1931 38.0067 29.7081 38.3685 30.3841C38.7332 31.0601 38.9156 31.8799 38.9156 32.8436ZM37.0245 32.8436C37.0245 32.2194 36.9312 31.6929 36.7445 31.2643C36.5607 30.8357 36.3008 30.5106 35.9648 30.2891C35.6288 30.0676 35.2354 29.9569 34.7845 29.9569C34.3337 29.9569 33.9402 30.0676 33.6042 30.2891C33.2682 30.5106 33.0069 30.8357 32.8202 31.2643C32.6364 31.6929 32.5445 32.2194 32.5445 32.8436C32.5445 33.4678 32.6364 33.9942 32.8202 34.4229C33.0069 34.8515 33.2682 35.1765 33.6042 35.398C33.9402 35.6195 34.3337 35.7303 34.7845 35.7303C35.2354 35.7303 35.6288 35.6195 35.9648 35.398C36.3008 35.1765 36.5607 34.8515 36.7445 34.4229C36.9312 33.9942 37.0245 33.4678 37.0245 32.8436Z" fill="#696969"/>
<path d="M93.9738 28.4251H96.063L98.0747 32.2309H98.1608L100.173 28.4251H102.262L99.0439 34.1381V37.2621H97.1916V34.1381L93.9738 28.4251Z" fill="white"/>
<path d="M104.875 37.3916C104.195 37.3916 103.609 37.2535 103.118 36.9773C102.63 36.6983 102.254 36.3042 101.989 35.795C101.725 35.283 101.593 34.6775 101.593 33.9784C101.593 33.2967 101.725 32.6983 101.989 32.1834C102.254 31.6685 102.625 31.2672 103.105 30.9795C103.587 30.6919 104.153 30.548 104.802 30.548C105.239 30.548 105.645 30.6185 106.021 30.7595C106.4 30.8975 106.731 31.1061 107.012 31.3851C107.296 31.6642 107.517 32.0151 107.675 32.438C107.833 32.858 107.912 33.3499 107.912 33.9137V34.4186H102.325V33.2794H106.185C106.185 33.0148 106.128 32.7803 106.013 32.5761C105.898 32.3718 105.738 32.2122 105.535 32.0971C105.333 31.9792 105.099 31.9202 104.832 31.9202C104.554 31.9202 104.307 31.9849 104.091 32.1144C103.879 32.2409 103.712 32.4121 103.592 32.6278C103.471 32.8407 103.409 33.078 103.407 33.3398V34.4229C103.407 34.7508 103.467 35.0342 103.587 35.2729C103.711 35.5117 103.885 35.6958 104.109 35.8252C104.333 35.9547 104.598 36.0194 104.906 36.0194C105.109 36.0194 105.296 35.9906 105.466 35.9331C105.635 35.8756 105.78 35.7893 105.901 35.6742C106.021 35.5591 106.113 35.4182 106.176 35.2513L107.874 35.3635C107.787 35.772 107.611 36.1287 107.344 36.4336C107.08 36.7357 106.738 36.9716 106.319 37.1413C105.902 37.3081 105.421 37.3916 104.875 37.3916Z" fill="white"/>
<path d="M114.615 32.5243L112.935 32.6278C112.906 32.484 112.845 32.3546 112.75 32.2395C112.655 32.1216 112.53 32.0281 112.375 31.959C112.223 31.8871 112.041 31.8511 111.828 31.8511C111.544 31.8511 111.304 31.9116 111.109 32.0324C110.913 32.1503 110.816 32.3085 110.816 32.507C110.816 32.6652 110.879 32.799 111.005 32.9083C111.132 33.0176 111.348 33.1054 111.656 33.1715L112.853 33.4132C113.497 33.5455 113.976 33.7584 114.292 34.0518C114.608 34.3452 114.766 34.7307 114.766 35.2082C114.766 35.6426 114.638 36.0237 114.383 36.3517C114.13 36.6796 113.782 36.9356 113.34 37.1197C112.901 37.3009 112.394 37.3916 111.819 37.3916C110.944 37.3916 110.246 37.2089 109.726 36.8436C109.209 36.4754 108.906 35.9748 108.817 35.342L110.622 35.247C110.676 35.5146 110.809 35.7188 111.018 35.8597C111.228 35.9978 111.496 36.0669 111.824 36.0669C112.145 36.0669 112.404 36.005 112.599 35.8813C112.797 35.7548 112.898 35.5922 112.901 35.3937C112.898 35.2269 112.827 35.0902 112.69 34.9838C112.552 34.8745 112.339 34.7911 112.052 34.7335L110.906 34.5049C110.26 34.3754 109.779 34.151 109.463 33.8317C109.15 33.5124 108.994 33.1054 108.994 32.6106C108.994 32.1848 109.108 31.8181 109.338 31.5103C109.571 31.2025 109.897 30.9651 110.316 30.7983C110.738 30.6315 111.232 30.548 111.798 30.548C112.634 30.548 113.291 30.7249 113.771 31.0788C114.253 31.4326 114.535 31.9144 114.615 32.5243Z" fill="white"/>
<path d="M12.4971 111.518H11.0841L14.2589 102.681H15.7968L18.9715 111.518H17.5586L15.0644 104.286H14.9955L12.4971 111.518ZM12.734 108.057H17.3174V109.179H12.734V108.057Z" fill="#696969"/>
<path d="M20.1421 114.003V104.89H21.4V105.964H21.5077C21.5823 105.826 21.69 105.667 21.8307 105.485C21.9715 105.304 22.1667 105.146 22.4166 105.011C22.6664 104.873 22.9967 104.804 23.4074 104.804C23.9415 104.804 24.4182 104.939 24.8375 105.209C25.2568 105.48 25.5856 105.87 25.824 106.379C26.0652 106.888 26.1858 107.501 26.1858 108.217C26.1858 108.933 26.0666 109.547 25.8283 110.059C25.5899 110.569 25.2625 110.961 24.8461 111.237C24.4297 111.511 23.9544 111.647 23.4203 111.647C23.0182 111.647 22.6894 111.58 22.4338 111.444C22.1811 111.309 21.9829 111.151 21.8394 110.97C21.6958 110.789 21.5852 110.627 21.5077 110.487H21.4301V114.003H20.1421ZM21.4043 108.204C21.4043 108.67 21.4718 109.078 21.6067 109.429C21.7417 109.78 21.937 110.055 22.1926 110.254C22.4482 110.449 22.7612 110.547 23.1317 110.547C23.5165 110.547 23.8381 110.445 24.0966 110.241C24.355 110.033 24.5503 109.753 24.6824 109.399C24.8174 109.045 24.8849 108.647 24.8849 108.204C24.8849 107.767 24.8188 107.374 24.6867 107.026C24.5575 106.678 24.3622 106.403 24.1009 106.202C23.8424 106 23.5194 105.9 23.1317 105.9C22.7583 105.9 22.4424 105.996 22.184 106.189C21.9284 106.382 21.7345 106.651 21.6024 106.996C21.4703 107.341 21.4043 107.744 21.4043 108.204Z" fill="#696969"/>
<path d="M30.7175 104.89V105.926H27.1033V104.89H30.7175ZM28.0726 103.302H29.3606V109.572C29.3606 109.822 29.3979 110.01 29.4726 110.137C29.5472 110.261 29.6434 110.346 29.7612 110.392C29.8818 110.435 30.0125 110.456 30.1532 110.456C30.2566 110.456 30.347 110.449 30.4246 110.435C30.5021 110.42 30.5624 110.409 30.6055 110.4L30.8381 111.466C30.7634 111.495 30.6572 111.524 30.5193 111.552C30.3815 111.584 30.2092 111.601 30.0024 111.604C29.6635 111.61 29.3476 111.549 29.0547 111.423C28.7618 111.296 28.5249 111.101 28.344 110.836C28.163 110.571 28.0726 110.239 28.0726 109.839V103.302Z" fill="#696969"/>
<path d="M38.4067 111.639C37.8151 111.639 37.2867 111.536 36.8215 111.332C36.3591 111.128 35.993 110.845 35.723 110.482C35.4559 110.117 35.3124 109.694 35.2922 109.214H36.6449C36.6621 109.475 36.7497 109.703 36.9076 109.895C37.0685 110.085 37.2781 110.232 37.5366 110.335C37.795 110.439 38.0822 110.491 38.3981 110.491C38.7456 110.491 39.0529 110.43 39.3199 110.31C39.5899 110.189 39.801 110.021 39.9532 109.805C40.1054 109.586 40.1815 109.334 40.1815 109.05C40.1815 108.753 40.1054 108.493 39.9532 108.269C39.8038 108.041 39.5841 107.863 39.2941 107.734C39.0069 107.604 38.6594 107.539 38.2516 107.539H37.5064V106.452H38.2516C38.579 106.452 38.8662 106.393 39.1132 106.275C39.363 106.157 39.5583 105.993 39.699 105.783C39.8397 105.57 39.9101 105.322 39.9101 105.037C39.9101 104.763 39.8483 104.526 39.7249 104.325C39.6042 104.121 39.4319 103.961 39.2079 103.846C38.9868 103.731 38.7255 103.673 38.4239 103.673C38.1368 103.673 37.8682 103.726 37.6184 103.833C37.3714 103.936 37.1704 104.086 37.0153 104.282C36.8602 104.474 36.777 104.706 36.7655 104.976H35.4775C35.4918 104.499 35.6326 104.079 35.8996 103.716C36.1696 103.354 36.5257 103.071 36.9679 102.866C37.4102 102.662 37.9013 102.56 38.4412 102.56C39.0069 102.56 39.4951 102.671 39.9058 102.892C40.3193 103.111 40.6381 103.403 40.8621 103.768C41.089 104.133 41.201 104.533 41.1981 104.968C41.201 105.462 41.0631 105.882 40.7845 106.228C40.5089 106.573 40.1413 106.804 39.6818 106.922V106.991C40.2676 107.081 40.7214 107.314 41.043 107.69C41.3675 108.067 41.5283 108.535 41.5255 109.093C41.5283 109.579 41.3934 110.015 41.1205 110.4C40.8506 110.786 40.4816 111.089 40.0135 111.311C39.5454 111.529 39.0098 111.639 38.4067 111.639Z" fill="#696969"/>
<path d="M44.5861 110.31L44.5215 110.78C44.4784 111.125 44.4052 111.485 44.3018 111.859C44.2013 112.236 44.0964 112.585 43.9873 112.907C43.881 113.229 43.7935 113.485 43.7245 113.675H42.8113C42.8486 113.497 42.9003 113.255 42.9664 112.95C43.0324 112.648 43.0971 112.31 43.1602 111.936C43.2234 111.562 43.2708 111.181 43.3024 110.793L43.3455 110.31H44.5861Z" fill="#696969"/>
<path d="M54.3882 105.002C54.3423 104.594 54.1527 104.277 53.8196 104.053C53.4865 103.826 53.0672 103.712 52.5617 103.712C52.1999 103.712 51.8869 103.77 51.6227 103.885C51.3585 103.997 51.1531 104.152 51.0067 104.351C50.8631 104.546 50.7913 104.769 50.7913 105.019C50.7913 105.229 50.8401 105.411 50.9378 105.563C51.0383 105.716 51.1689 105.844 51.3298 105.947C51.4934 106.048 51.6686 106.133 51.8553 106.202C52.042 106.268 52.2214 106.323 52.3937 106.366L53.2553 106.59C53.5367 106.659 53.8253 106.753 54.1211 106.871C54.4169 106.989 54.6912 107.144 54.9439 107.337C55.1966 107.529 55.4005 107.768 55.5556 108.053C55.7135 108.338 55.7925 108.679 55.7925 109.076C55.7925 109.576 55.6633 110.02 55.4048 110.409C55.1492 110.797 54.7773 111.104 54.2891 111.328C53.8038 111.552 53.2165 111.665 52.5273 111.665C51.8668 111.665 51.2953 111.559 50.8128 111.35C50.3304 111.14 49.9527 110.842 49.6799 110.456C49.4071 110.068 49.2563 109.608 49.2276 109.076H50.563C50.5888 109.395 50.6922 109.661 50.8731 109.874C51.0569 110.084 51.291 110.241 51.5753 110.344C51.8625 110.445 52.1769 110.495 52.5187 110.495C52.8949 110.495 53.2294 110.436 53.5224 110.318C53.8182 110.197 54.0508 110.031 54.2202 109.818C54.3896 109.602 54.4744 109.35 54.4744 109.063C54.4744 108.801 54.3997 108.586 54.2504 108.42C54.1039 108.253 53.9043 108.115 53.6516 108.005C53.4017 107.896 53.1189 107.8 52.803 107.716L51.7605 107.432C51.0541 107.239 50.4941 106.955 50.0805 106.581C49.6699 106.208 49.4645 105.713 49.4645 105.097C49.4645 104.588 49.6024 104.144 49.8781 103.764C50.1538 103.384 50.5271 103.089 50.9981 102.879C51.469 102.666 52.0003 102.56 52.5919 102.56C53.1892 102.56 53.7162 102.665 54.1728 102.875C54.6323 103.085 54.9942 103.374 55.2584 103.742C55.5226 104.108 55.6604 104.528 55.6719 105.002H54.3882Z" fill="#696969"/>
<path d="M60.3683 104.89V105.926H56.7542V104.89H60.3683ZM57.7234 103.302H59.0114V109.572C59.0114 109.822 59.0488 110.01 59.1234 110.137C59.1981 110.261 59.2943 110.346 59.412 110.392C59.5327 110.435 59.6633 110.456 59.804 110.456C59.9074 110.456 59.9979 110.449 60.0754 110.435C60.153 110.42 60.2133 110.409 60.2563 110.4L60.489 111.466C60.4143 111.495 60.308 111.524 60.1702 111.552C60.0323 111.584 59.86 111.601 59.6533 111.604C59.3144 111.61 58.9985 111.549 58.7056 111.423C58.4127 111.296 58.1757 111.101 57.9948 110.836C57.8139 110.571 57.7234 110.239 57.7234 109.839V103.302Z" fill="#696969"/>
<path d="M61.7931 111.518V104.89H63.038V105.943H63.107C63.2276 105.586 63.4401 105.306 63.7445 105.101C64.0518 104.894 64.3993 104.791 64.787 104.791C64.8674 104.791 64.9621 104.794 65.0713 104.799C65.1833 104.805 65.2708 104.812 65.334 104.821V106.055C65.2823 106.041 65.1904 106.025 65.0583 106.008C64.9262 105.987 64.7941 105.977 64.662 105.977C64.3576 105.977 64.0862 106.042 63.8479 106.172C63.6124 106.298 63.4257 106.475 63.2879 106.702C63.15 106.927 63.0811 107.183 63.0811 107.47V111.518H61.7931Z" fill="#696969"/>
<path d="M69.0634 111.652C68.4115 111.652 67.8501 111.512 67.3791 111.233C66.911 110.951 66.5492 110.556 66.2936 110.046C66.0408 109.534 65.9145 108.935 65.9145 108.247C65.9145 107.568 66.0408 106.97 66.2936 106.452C66.5492 105.934 66.9053 105.53 67.3619 105.24C67.8214 104.949 68.3584 104.804 68.9729 104.804C69.3463 104.804 69.7081 104.866 70.0585 104.989C70.4088 105.113 70.7233 105.307 71.0019 105.572C71.2804 105.836 71.5001 106.18 71.6609 106.603C71.8218 107.023 71.9022 107.534 71.9022 108.135V108.592H66.6425V107.626H70.64C70.64 107.286 70.5711 106.986 70.4332 106.724C70.2954 106.459 70.1016 106.251 69.8517 106.098C69.6047 105.946 69.3147 105.87 68.9816 105.87C68.6197 105.87 68.3038 105.959 68.0339 106.137C67.7668 106.313 67.56 106.543 67.4136 106.827C67.27 107.109 67.1982 107.416 67.1982 107.747V108.502C67.1982 108.945 67.2757 109.321 67.4308 109.632C67.5887 109.943 67.8084 110.18 68.0899 110.344C68.3713 110.505 68.7001 110.586 69.0763 110.586C69.3204 110.586 69.543 110.551 69.744 110.482C69.945 110.41 70.1188 110.304 70.2652 110.163C70.4117 110.022 70.5237 109.848 70.6012 109.641L71.8203 109.861C71.7227 110.22 71.5475 110.535 71.2948 110.806C71.0449 111.073 70.7305 111.282 70.3514 111.431C69.9752 111.578 69.5459 111.652 69.0634 111.652Z" fill="#696969"/>
<path d="M76.1829 111.652C75.531 111.652 74.9696 111.512 74.4986 111.233C74.0305 110.951 73.6687 110.556 73.4131 110.046C73.1604 109.534 73.034 108.935 73.034 108.247C73.034 107.568 73.1604 106.97 73.4131 106.452C73.6687 105.934 74.0248 105.53 74.4814 105.24C74.9409 104.949 75.4779 104.804 76.0925 104.804C76.4658 104.804 76.8276 104.866 77.178 104.989C77.5284 105.113 77.8428 105.307 78.1214 105.572C78.3999 105.836 78.6196 106.18 78.7805 106.603C78.9413 107.023 79.0217 107.534 79.0217 108.135V108.592H73.762V107.626H77.7595C77.7595 107.286 77.6906 106.986 77.5528 106.724C77.4149 106.459 77.2211 106.251 76.9712 106.098C76.7243 105.946 76.4342 105.87 76.1011 105.87C75.7392 105.87 75.4233 105.959 75.1534 106.137C74.8863 106.313 74.6795 106.543 74.5331 106.827C74.3895 107.109 74.3177 107.416 74.3177 107.747V108.502C74.3177 108.945 74.3952 109.321 74.5503 109.632C74.7083 109.943 74.928 110.18 75.2094 110.344C75.4908 110.505 75.8196 110.586 76.1959 110.586C76.44 110.586 76.6625 110.551 76.8635 110.482C77.0646 110.41 77.2383 110.304 77.3848 110.163C77.5312 110.022 77.6432 109.848 77.7208 109.641L78.9398 109.861C78.8422 110.22 78.667 110.535 78.4143 110.806C78.1645 111.073 77.85 111.282 77.4709 111.431C77.0947 111.578 76.6654 111.652 76.1829 111.652Z" fill="#696969"/>
<path d="M83.5394 104.89V105.926H79.9252V104.89H83.5394ZM80.8945 103.302H82.1825V109.572C82.1825 109.822 82.2198 110.01 82.2945 110.137C82.3691 110.261 82.4653 110.346 82.5831 110.392C82.7037 110.435 82.8343 110.456 82.9751 110.456C83.0785 110.456 83.1689 110.449 83.2464 110.435C83.324 110.42 83.3843 110.409 83.4274 110.4L83.66 111.466C83.5853 111.495 83.4791 111.524 83.3412 111.552C83.2034 111.584 83.0311 111.601 82.8243 111.604C82.4854 111.61 82.1695 111.549 81.8766 111.423C81.5837 111.296 81.3468 111.101 81.1658 110.836C80.9849 110.571 80.8945 110.239 80.8945 109.839V103.302Z" fill="#696969"/>
<path d="M95.3984 102.681V111.518H94.175L89.6907 105.037H89.6089V111.518H88.2778V102.681H89.5098L93.9984 109.17H94.0803V102.681H95.3984Z" fill="#696969"/>
<path d="M99.1623 111.665C98.743 111.665 98.3639 111.587 98.025 111.431C97.6862 111.273 97.4177 111.045 97.2195 110.745C97.0242 110.446 96.9266 110.079 96.9266 109.645C96.9266 109.271 96.9984 108.963 97.142 108.722C97.2856 108.48 97.4794 108.289 97.7235 108.148C97.9676 108.007 98.2404 107.9 98.542 107.829C98.8435 107.757 99.1508 107.702 99.4638 107.665C99.8601 107.619 100.182 107.581 100.429 107.552C100.676 107.521 100.855 107.47 100.967 107.401C101.079 107.332 101.135 107.22 101.135 107.065V107.035C101.135 106.658 101.029 106.366 100.816 106.159C100.607 105.951 100.294 105.848 99.8773 105.848C99.4437 105.848 99.102 105.944 98.8521 106.137C98.6051 106.327 98.4343 106.538 98.3395 106.771L97.129 106.495C97.2726 106.092 97.4823 105.767 97.758 105.52C98.0365 105.27 98.3567 105.089 98.7186 104.976C99.0804 104.861 99.4609 104.804 99.8601 104.804C100.124 104.804 100.404 104.835 100.7 104.899C100.999 104.959 101.277 105.071 101.536 105.235C101.797 105.399 102.011 105.634 102.178 105.939C102.344 106.241 102.427 106.633 102.427 107.117V111.518H101.17V110.612H101.118C101.035 110.778 100.91 110.942 100.743 111.104C100.577 111.265 100.363 111.398 100.101 111.505C99.84 111.611 99.527 111.665 99.1623 111.665ZM99.4423 110.629C99.7984 110.629 100.103 110.558 100.355 110.417C100.611 110.277 100.805 110.092 100.937 109.865C101.072 109.635 101.139 109.389 101.139 109.127V108.273C101.094 108.319 101.005 108.362 100.872 108.402C100.743 108.44 100.595 108.473 100.429 108.502C100.262 108.528 100.1 108.552 99.942 108.575C99.784 108.595 99.6519 108.612 99.5456 108.627C99.2958 108.658 99.0675 108.712 98.8607 108.786C98.6568 108.861 98.4931 108.969 98.3697 109.11C98.249 109.248 98.1887 109.432 98.1887 109.662C98.1887 109.982 98.3065 110.223 98.542 110.387C98.7774 110.548 99.0775 110.629 99.4423 110.629Z" fill="#696969"/>
<path d="M104.143 111.518V104.89H105.379V105.969H105.461C105.599 105.603 105.824 105.319 106.137 105.114C106.451 104.907 106.825 104.804 107.262 104.804C107.704 104.804 108.074 104.907 108.373 105.114C108.675 105.322 108.897 105.606 109.041 105.969H109.11C109.268 105.615 109.519 105.333 109.864 105.123C110.208 104.91 110.619 104.804 111.096 104.804C111.696 104.804 112.185 104.992 112.565 105.369C112.946 105.746 113.137 106.314 113.137 107.073V111.518H111.849V107.194C111.849 106.745 111.727 106.42 111.483 106.219C111.239 106.018 110.948 105.917 110.609 105.917C110.19 105.917 109.864 106.046 109.631 106.305C109.398 106.561 109.282 106.891 109.282 107.293V111.518H107.998V107.112C107.998 106.753 107.886 106.464 107.662 106.245C107.438 106.026 107.147 105.917 106.788 105.917C106.544 105.917 106.318 105.982 106.112 106.111C105.908 106.238 105.743 106.415 105.616 106.642C105.493 106.869 105.431 107.132 105.431 107.432V111.518H104.143Z" fill="#696969"/>
<path d="M117.715 111.652C117.064 111.652 116.502 111.512 116.031 111.233C115.563 110.951 115.201 110.556 114.946 110.046C114.693 109.534 114.567 108.935 114.567 108.247C114.567 107.568 114.693 106.97 114.946 106.452C115.201 105.934 115.557 105.53 116.014 105.24C116.473 104.949 117.01 104.804 117.625 104.804C117.998 104.804 118.36 104.866 118.711 104.989C119.061 105.113 119.375 105.307 119.654 105.572C119.932 105.836 120.152 106.18 120.313 106.603C120.474 107.023 120.554 107.534 120.554 108.135V108.592H115.295V107.626H119.292C119.292 107.286 119.223 106.986 119.085 106.724C118.947 106.459 118.754 106.251 118.504 106.098C118.257 105.946 117.967 105.87 117.634 105.87C117.272 105.87 116.956 105.959 116.686 106.137C116.419 106.313 116.212 106.543 116.066 106.827C115.922 107.109 115.85 107.416 115.85 107.747V108.502C115.85 108.945 115.928 109.321 116.083 109.632C116.241 109.943 116.46 110.18 116.742 110.344C117.023 110.505 117.352 110.586 117.728 110.586C117.972 110.586 118.195 110.551 118.396 110.482C118.597 110.41 118.771 110.304 118.917 110.163C119.064 110.022 119.176 109.848 119.253 109.641L120.472 109.861C120.375 110.22 120.2 110.535 119.947 110.806C119.697 111.073 119.383 111.282 119.003 111.431C118.627 111.578 118.198 111.652 117.715 111.652Z" fill="#696969"/>
<path d="M123.659 110.31L123.594 110.78C123.551 111.125 123.478 111.485 123.375 111.859C123.274 112.236 123.169 112.585 123.06 112.907C122.954 113.229 122.866 113.485 122.797 113.675H121.884C121.922 113.497 121.973 113.255 122.039 112.95C122.105 112.648 122.17 112.31 122.233 111.936C122.296 111.562 122.344 111.181 122.375 110.793L122.418 110.31H123.659Z" fill="#696969"/>
<path d="M128.214 103.829V102.681H135.042V103.829H132.289V111.518H130.963V103.829H128.214Z" fill="#696969"/>
<path d="M138.275 111.652C137.655 111.652 137.113 111.509 136.651 111.224C136.189 110.94 135.83 110.541 135.574 110.029C135.318 109.517 135.191 108.919 135.191 108.234C135.191 107.547 135.318 106.945 135.574 106.43C135.83 105.916 136.189 105.516 136.651 105.231C137.113 104.946 137.655 104.804 138.275 104.804C138.895 104.804 139.437 104.946 139.899 105.231C140.361 105.516 140.72 105.916 140.976 106.43C141.231 106.945 141.359 107.547 141.359 108.234C141.359 108.919 141.231 109.517 140.976 110.029C140.72 110.541 140.361 110.94 139.899 111.224C139.437 111.509 138.895 111.652 138.275 111.652ZM138.279 110.569C138.681 110.569 139.014 110.462 139.279 110.249C139.543 110.036 139.738 109.753 139.864 109.399C139.994 109.045 140.058 108.656 140.058 108.23C140.058 107.807 139.994 107.419 139.864 107.065C139.738 106.708 139.543 106.422 139.279 106.206C139.014 105.99 138.681 105.882 138.279 105.882C137.874 105.882 137.538 105.99 137.271 106.206C137.007 106.422 136.81 106.708 136.681 107.065C136.555 107.419 136.492 107.807 136.492 108.23C136.492 108.656 136.555 109.045 136.681 109.399C136.81 109.753 137.007 110.036 137.271 110.249C137.538 110.462 137.874 110.569 138.279 110.569Z" fill="#696969"/>
<path d="M144.03 111.518L142.083 104.89H143.414L144.711 109.757H144.775L146.076 104.89H147.407L148.7 109.736H148.764L150.052 104.89H151.383L149.44 111.518H148.127L146.783 106.733H146.684L145.34 111.518H144.03Z" fill="#696969"/>
<path d="M153.894 107.583V111.518H152.606V104.89H153.842V105.969H153.924C154.076 105.618 154.314 105.336 154.639 105.123C154.966 104.91 155.378 104.804 155.875 104.804C156.326 104.804 156.721 104.899 157.06 105.088C157.399 105.275 157.661 105.555 157.848 105.926C158.035 106.297 158.128 106.756 158.128 107.302V111.518H156.84V107.457C156.84 106.977 156.715 106.602 156.465 106.331C156.215 106.058 155.872 105.921 155.436 105.921C155.137 105.921 154.871 105.986 154.639 106.115C154.409 106.245 154.227 106.435 154.092 106.685C153.96 106.932 153.894 107.232 153.894 107.583Z" fill="#696969"/>
<path d="M14.6078 190.499H11.7518V181.662H14.6983C15.5627 181.662 16.3051 181.839 16.9254 182.193C17.5457 182.544 18.021 183.048 18.3512 183.707C18.6843 184.363 18.8509 185.15 18.8509 186.067C18.8509 186.988 18.6829 187.779 18.3469 188.441C18.0138 189.102 17.5313 189.611 16.8995 189.968C16.2677 190.322 15.5038 190.499 14.6078 190.499ZM13.0829 189.334H14.5346C15.2066 189.334 15.7652 189.207 16.2103 188.954C16.6554 188.698 16.9885 188.329 17.2097 187.845C17.4308 187.359 17.5414 186.767 17.5414 186.067C17.5414 185.374 17.4308 184.786 17.2097 184.303C16.9914 183.819 16.6655 183.453 16.2318 183.202C15.7982 182.952 15.2597 182.827 14.6164 182.827H13.0829V189.334Z" fill="#696969"/>
<path d="M24.5941 187.75V183.871H25.8864V190.499H24.62V189.351H24.551C24.3988 189.705 24.1547 190 23.8187 190.236C23.4856 190.469 23.0706 190.585 22.5738 190.585C22.1488 190.585 21.7726 190.492 21.4452 190.305C21.1207 190.115 20.8651 189.834 20.6784 189.463C20.4946 189.092 20.4027 188.633 20.4027 188.087V183.871H21.6907V187.932C21.6907 188.383 21.8157 188.743 22.0655 189.01C22.3154 189.278 22.6399 189.412 23.039 189.412C23.2803 189.412 23.5201 189.351 23.7584 189.23C23.9997 189.11 24.1992 188.927 24.3572 188.682C24.518 188.438 24.597 188.127 24.5941 187.75Z" fill="#696969"/>
<path d="M27.7204 190.499V181.662H29.0084V184.946H29.086C29.1606 184.808 29.2683 184.648 29.409 184.467C29.5497 184.285 29.745 184.127 29.9949 183.992C30.2447 183.854 30.575 183.785 30.9856 183.785C31.5198 183.785 31.9965 183.92 32.4158 184.19C32.8351 184.461 33.1639 184.851 33.4023 185.36C33.6435 185.869 33.7641 186.482 33.7641 187.198C33.7641 187.914 33.6449 188.528 33.4066 189.041C33.1682 189.55 32.8408 189.942 32.4244 190.218C32.008 190.492 31.5327 190.628 30.9986 190.628C30.5965 190.628 30.2677 190.561 30.0121 190.426C29.7594 190.29 29.5612 190.132 29.4176 189.951C29.2741 189.77 29.1635 189.609 29.086 189.468H28.9783V190.499H27.7204ZM28.9826 187.185C28.9826 187.651 29.0501 188.06 29.185 188.411C29.32 188.761 29.5153 189.036 29.7709 189.235C30.0265 189.43 30.3395 189.528 30.71 189.528C31.0948 189.528 31.4164 189.426 31.6749 189.222C31.9333 189.015 32.1286 188.734 32.2607 188.38C32.3957 188.026 32.4632 187.628 32.4632 187.185C32.4632 186.748 32.3971 186.355 32.265 186.007C32.1358 185.659 31.9405 185.384 31.6792 185.183C31.4207 184.982 31.0976 184.881 30.71 184.881C30.3366 184.881 30.0207 184.977 29.7623 185.17C29.5067 185.363 29.3128 185.632 29.1807 185.977C29.0486 186.322 28.9826 186.725 28.9826 187.185Z" fill="#696969"/>
<path d="M36.4984 181.662V190.499H35.2104V181.662H36.4984Z" fill="#696969"/>
<path d="M38.2312 190.499V183.871H39.5192V190.499H38.2312ZM38.8816 182.849C38.6576 182.849 38.4652 182.774 38.3044 182.624C38.1464 182.472 38.0675 182.29 38.0675 182.08C38.0675 181.868 38.1464 181.686 38.3044 181.537C38.4652 181.384 38.6576 181.308 38.8816 181.308C39.1056 181.308 39.2966 181.384 39.4545 181.537C39.6154 181.686 39.6958 181.868 39.6958 182.08C39.6958 182.29 39.6154 182.472 39.4545 182.624C39.2966 182.774 39.1056 182.849 38.8816 182.849Z" fill="#696969"/>
<path d="M42.5399 186.564V190.499H41.2519V183.871H42.4882V184.95H42.5701C42.7223 184.599 42.9606 184.317 43.2852 184.104C43.6125 183.891 44.0246 183.785 44.5215 183.785C44.9723 183.785 45.3672 183.88 45.7061 184.07C46.0449 184.257 46.3077 184.536 46.4944 184.907C46.681 185.278 46.7744 185.737 46.7744 186.283V190.499H45.4864V186.439C45.4864 185.958 45.3615 185.583 45.1116 185.312C44.8618 185.039 44.5186 184.902 44.0821 184.902C43.7834 184.902 43.5178 184.967 43.2852 185.097C43.0554 185.226 42.8731 185.416 42.7381 185.666C42.606 185.914 42.5399 186.213 42.5399 186.564Z" fill="#696969"/>
<path d="M153.228 39.7815C154.779 42.0574 156.333 44.3242 158.042 46.8291C156.258 47.3321 154.91 46.693 154.042 45.6598C151.474 42.5977 148.933 39.4878 146.727 36.1686C145.461 34.2669 146.472 32.595 148.738 32.4173C152.515 32.1232 156.3 32.0206 160.086 31.8429C160.306 31.8302 160.594 31.7826 160.741 31.8888C161.226 32.2424 161.656 32.6633 162.11 33.0518C161.766 33.4293 161.48 34.0461 161.066 34.1519C159.672 34.5064 158.224 34.6874 156.801 34.9333C156.051 35.0606 155.307 35.1855 154.398 35.8561C155.432 36.3655 156.453 36.9175 157.508 37.3662C179.017 46.5857 203.388 40.6724 218.355 22.5399C220.27 20.222 221.896 17.667 223.667 15.2338C224.288 14.3857 224.953 13.5725 225.594 12.7386C225.83 12.8242 226.064 12.9034 226.3 12.989C226.315 13.6656 226.565 14.4434 226.313 14.9943C225.448 16.9225 224.542 18.8597 223.418 20.644C212.01 38.7047 189.909 48.0615 168.244 43.8473C164.113 43.0453 160.128 41.4801 156.084 40.2383C155.25 39.9865 154.454 39.6067 153.645 39.2851C153.506 39.4454 153.365 39.5993 153.227 39.7595L153.228 39.7815Z" fill="#3745B6"/>
</svg>
